<svg width="24" height="24" viewBox="0 0 24 24" fill="none" xmlns="http://www.w3.org/2000/svg">
<path d="M17.0999 13.96C17.0999 14.2361 17.3238 14.46 17.5999 14.46C17.876 14.46 18.0999 14.2361 18.0999 13.96H17.0999ZM9.1999 4.5C8.92376 4.5 8.6999 4.72386 8.6999 5C8.6999 5.27614 8.92376 5.5 9.1999 5.5V4.5ZM13.4593 14.7123C13.264 14.517 12.9474 14.517 12.7522 14.7123C12.5569 14.9075 12.5569 15.2241 12.7522 15.4194L13.4593 14.7123ZM13.8863 16.5536C14.0816 16.7488 14.3982 16.7488 14.5935 16.5536C14.7887 16.3583 14.7887 16.0417 14.5935 15.8464L13.8863 16.5536ZM18.0999 13.96V12H17.0999V13.96H18.0999ZM18.0999 12C18.0999 10.3321 16.7478 8.98 15.0799 8.98V9.98C16.1955 9.98 17.0999 10.8844 17.0999 12H18.0999ZM15.0799 8.98H13.9599V9.98H15.0799V8.98ZM13.9599 8.98C13.7721 8.98 13.6199 8.82778 13.6199 8.64H12.6199C12.6199 9.38006 13.2198 9.98 13.9599 9.98V8.98ZM13.6199 8.64V7.52H12.6199V8.64H13.6199ZM13.6199 7.52C13.6199 5.8521 12.2678 4.5 10.5999 4.5V5.5C11.7155 5.5 12.6199 6.40438 12.6199 7.52H13.6199ZM10.5999 4.5H9.1999V5.5H10.5999V4.5ZM12.7522 15.4194L13.8863 16.5536L14.5935 15.8464L13.4593 14.7123L12.7522 15.4194ZM10.8799 4.5H7.2399V5.5H10.8799V4.5ZM7.2399 4.5C6.50008 4.5 5.8999 5.10018 5.8999 5.84H6.8999C6.8999 5.65246 7.05236 5.5 7.2399 5.5V4.5ZM5.8999 5.84V18.16H6.8999V5.84H5.8999ZM5.8999 18.16C5.8999 18.8998 6.50008 19.5 7.2399 19.5V18.5C7.05236 18.5 6.8999 18.3475 6.8999 18.16H5.8999ZM7.2399 19.5H16.7599V18.5H7.2399V19.5ZM16.7599 19.5C17.4997 19.5 18.0999 18.8998 18.0999 18.16H17.0999C17.0999 18.3475 16.9474 18.5 16.7599 18.5V19.5ZM18.0999 18.16V11.72H17.0999V18.16H18.0999ZM18.0999 11.72C18.0999 7.73251 14.8674 4.5 10.8799 4.5V5.5C14.3151 5.5 17.0999 8.28479 17.0999 11.72H18.0999ZM13.1799 13.68C13.1799 14.4863 12.5262 15.14 11.7199 15.14V16.14C13.0785 16.14 14.1799 15.0386 14.1799 13.68H13.1799ZM11.7199 15.14C10.9136 15.14 10.2599 14.4863 10.2599 13.68H9.2599C9.2599 15.0386 10.3613 16.14 11.7199 16.14V15.14ZM10.2599 13.68C10.2599 12.8737 10.9136 12.22 11.7199 12.22V11.22C10.3613 11.22 9.2599 12.3214 9.2599 13.68H10.2599ZM11.7199 12.22C12.5262 12.22 13.1799 12.8737 13.1799 13.68H14.1799C14.1799 12.3214 13.0785 11.22 11.7199 11.22V12.22Z" fill="#74829C"/>
</svg>
