<svg width="36" height="36" viewBox="0 0 36 36" fill="none" xmlns="http://www.w3.org/2000/svg">
<g id="Group 24661">
<path id="Vector" d="M25 14.0859C25 13.2532 24.1007 12.7317 23.3778 13.1442L16.5266 17.0595C16.3607 17.1544 16.2229 17.2914 16.127 17.4567C16.0312 17.622 15.9807 17.8097 15.9807 18.0007C15.9807 18.1918 16.0312 18.3795 16.127 18.5448C16.2229 18.7101 16.3607 18.8471 16.5266 18.942L23.3778 22.8572C23.5428 22.9515 23.7297 23.0007 23.9197 23C24.1097 22.9993 24.2962 22.9487 24.4605 22.8532C24.6247 22.7577 24.7611 22.6208 24.8558 22.456C24.9505 22.2913 25.0002 22.1046 25 21.9145V14.0859ZM15.6022 14.0859C15.6022 13.2532 14.7029 12.7317 13.98 13.1442L7.12879 17.0595C6.96293 17.1544 6.8251 17.2914 6.72923 17.4567C6.63337 17.622 6.58288 17.8097 6.58288 18.0007C6.58288 18.1918 6.63337 18.3795 6.72923 18.5448C6.8251 18.7101 6.96293 18.8471 7.12879 18.942L13.98 22.8572C14.1449 22.9514 14.3317 23.0007 14.5216 23C14.7116 22.9993 14.898 22.9488 15.0623 22.8534C15.2265 22.7581 15.3629 22.6213 15.4576 22.4567C15.5524 22.292 15.6022 22.1054 15.6022 21.9155V14.0859Z" stroke="white" stroke-linecap="round" stroke-linejoin="round"/>
</g>
</svg>
