<svg width="36" height="36" viewBox="0 0 36 36" fill="none" xmlns="http://www.w3.org/2000/svg">
<g id="Group 24662">
<path id="Vector" d="M11 14.0859C11 13.2532 11.8993 12.7317 12.6222 13.1442L19.4734 17.0595C19.6393 17.1544 19.7771 17.2914 19.873 17.4567C19.9688 17.622 20.0193 17.8097 20.0193 18.0007C20.0193 18.1918 19.9688 18.3795 19.873 18.5448C19.7771 18.7101 19.6393 18.8471 19.4734 18.942L12.6222 22.8572C12.4572 22.9515 12.2703 23.0007 12.0803 23C11.8903 22.9993 11.7038 22.9487 11.5395 22.8532C11.3753 22.7577 11.2389 22.6208 11.1442 22.456C11.0495 22.2913 10.9998 22.1046 11 21.9145V14.0859ZM20.3978 14.0859C20.3978 13.2532 21.2971 12.7317 22.02 13.1442L28.8712 17.0595C29.0371 17.1544 29.1749 17.2914 29.2708 17.4567C29.3666 17.622 29.4171 17.8097 29.4171 18.0007C29.4171 18.1918 29.3666 18.3795 29.2708 18.5448C29.1749 18.7101 29.0371 18.8471 28.8712 18.942L22.02 22.8572C21.8551 22.9514 21.6683 23.0007 21.4784 23C21.2884 22.9993 21.102 22.9488 20.9377 22.8534C20.7735 22.7581 20.6371 22.6213 20.5424 22.4567C20.4476 22.292 20.3978 22.1054 20.3978 21.9155V14.0859Z" stroke="white" stroke-linecap="round" stroke-linejoin="round"/>
</g>
</svg>
