<svg width="36" height="36" viewBox="0 0 36 36" fill="none" xmlns="http://www.w3.org/2000/svg">
<path d="M17.75 11.5714C16.6412 11.5714 15.5423 11.6109 14.4542 11.6897C13.5921 11.7504 12.7816 12.104 12.1704 12.6861C11.5591 13.2682 11.1878 14.0401 11.1241 14.8611C10.9586 16.9507 10.9586 19.0493 11.1241 21.1389C11.1878 21.9599 11.5591 22.7318 12.1704 23.3139C12.7816 23.896 13.5921 24.2496 14.4542 24.3103C14.6522 24.3249 14.8511 24.3377 15.05 24.3497M17.75 11.5714L15.05 9M17.75 11.5714L15.05 14.1429M17.75 24.4286C18.8588 24.4286 19.9577 24.3891 21.0458 24.3103C21.9079 24.2496 22.7184 23.896 23.3296 23.3139C23.9408 22.7318 24.3121 21.9599 24.3758 21.1389C24.5414 19.0493 24.5414 16.9507 24.3758 14.8611C24.3121 14.0401 23.9408 13.2682 23.3296 12.6861C22.7184 12.104 21.9079 11.7504 21.0458 11.6897C20.8478 11.6751 20.6489 11.6623 20.45 11.6503M17.75 24.4286L20.45 21.8571M17.75 24.4286L20.45 27" stroke="white" stroke-linecap="round" stroke-linejoin="round"/>
</svg>
