<svg width="36" height="36" viewBox="0 0 36 36" fill="none" xmlns="http://www.w3.org/2000/svg">
<g id="loop">
<path id="Vector" d="M13.76 24.18C14 24.25 14.25 24.29 14.5 24.31C14.7 24.32 14.9 24.34 15.1 24.35M17.8 11.57C16.69 11.57 15.59 11.61 14.5 11.69C13.64 11.75 12.83 12.1 12.22 12.69C11.61 13.27 11.24 14.04 11.17 14.87C11 16.96 11 19.06 11.17 21.15C11.23 21.97 11.6 22.74 12.22 23.33C12.26 23.36 12.29 23.4 12.33 23.43M17.8 11.57L15.1 9M17.8 11.57L15.1 14.14M23.23 12.53C22.64 12.03 21.89 11.74 21.1 11.68C20.9 11.67 20.7 11.65 20.5 11.64M17.8 24.42C18.91 24.42 20.01 24.38 21.1 24.3C21.96 24.24 22.77 23.89 23.38 23.3C23.99 22.72 24.36 21.95 24.43 21.12C24.6 19.03 24.6 16.93 24.43 14.84C24.41 14.57 24.36 14.31 24.27 14.06M20.5 21.84L17.8 24.41L20.5 26.98M10 25.74L25.6 10.16" stroke="white" stroke-linecap="round" stroke-linejoin="round"/>
</g>
</svg>
