<svg width="37" height="36" viewBox="0 0 37 36" fill="none" xmlns="http://www.w3.org/2000/svg">
<path fill-rule="evenodd" clip-rule="evenodd" d="M13.9352 14.9791L17.7375 11.1767C17.9103 11.0041 18.17 10.9526 18.3956 11.046C18.6213 11.1394 18.7685 11.3595 18.7687 11.6037V24.3963C18.7685 24.6405 18.6213 24.8606 18.3956 24.954C18.17 25.0474 17.9103 24.9958 17.7375 24.8233L13.9352 21.0209H12.1307C11.4218 21.0209 10.758 20.6125 10.5695 19.9302C10.3967 19.3013 10.3094 18.6521 10.3101 18C10.3101 17.3314 10.4003 16.6845 10.5695 16.0698C10.758 15.3867 11.4218 14.979 12.1307 14.979L13.9352 14.9791Z" stroke="white" stroke-linecap="round" stroke-linejoin="round"/>
<path d="M22.7466 15.8345C22.5514 15.6392 22.2348 15.6392 22.0395 15.8345C21.8443 16.0297 21.8443 16.3463 22.0395 16.5416L22.7466 15.8345ZM23.8521 18.3541C24.0473 18.5494 24.3639 18.5494 24.5592 18.3541C24.7544 18.1589 24.7544 17.8423 24.5592 17.647L23.8521 18.3541ZM24.5592 17.647C24.3639 17.4517 24.0473 17.4517 23.8521 17.647C23.6568 17.8423 23.6568 18.1589 23.8521 18.3541L24.5592 17.647ZM25.6646 20.1667C25.8599 20.3619 26.1765 20.3619 26.3717 20.1667C26.567 19.9714 26.567 19.6548 26.3717 19.4596L25.6646 20.1667ZM23.8521 17.647C23.6568 17.8423 23.6568 18.1589 23.8521 18.3541C24.0473 18.5494 24.3639 18.5494 24.5592 18.3541L23.8521 17.647ZM26.3717 16.5416C26.567 16.3463 26.567 16.0297 26.3717 15.8345C26.1765 15.6392 25.8599 15.6392 25.6646 15.8345L26.3717 16.5416ZM24.5592 18.3541C24.7544 18.1589 24.7544 17.8423 24.5592 17.647C24.3639 17.4517 24.0473 17.4517 23.8521 17.647L24.5592 18.3541ZM22.0395 19.4596C21.8443 19.6548 21.8443 19.9714 22.0395 20.1667C22.2348 20.3619 22.5514 20.3619 22.7466 20.1667L22.0395 19.4596ZM22.0395 16.5416L23.8521 18.3541L24.5592 17.647L22.7466 15.8345L22.0395 16.5416ZM23.8521 18.3541L25.6646 20.1667L26.3717 19.4596L24.5592 17.647L23.8521 18.3541ZM24.5592 18.3541L26.3717 16.5416L25.6646 15.8345L23.8521 17.647L24.5592 18.3541ZM23.8521 17.647L22.0395 19.4596L22.7466 20.1667L24.5592 18.3541L23.8521 17.647Z" fill="white"/>
</svg>
