<svg width="37" height="36" viewBox="0 0 37 36" fill="none" xmlns="http://www.w3.org/2000/svg">
<path d="M24.2489 12.5197C24.0537 12.3245 23.7371 12.3245 23.5418 12.5197C23.3466 12.715 23.3466 13.0316 23.5418 13.2268L24.2489 12.5197ZM23.5418 22.7732C23.3466 22.9684 23.3466 23.285 23.5418 23.4803C23.7371 23.6755 24.0537 23.6756 24.2489 23.4803L23.5418 22.7732ZM22.1134 14.6562C21.9181 14.4609 21.6015 14.4608 21.4063 14.6561C21.211 14.8513 21.211 15.1679 21.4062 15.3632L22.1134 14.6562ZM21.4062 20.6368C21.211 20.8321 21.211 21.1487 21.4063 21.3439C21.6015 21.5391 21.9181 21.5391 22.1134 21.3438L21.4062 20.6368ZM13.9352 14.9791L13.9352 15.4791C14.0678 15.4791 14.195 15.4264 14.2887 15.3326L13.9352 14.9791ZM17.7375 11.1767L17.3842 10.8229L17.384 10.8232L17.7375 11.1767ZM18.7687 11.6037L19.2687 11.6037L19.2687 11.6032L18.7687 11.6037ZM18.7687 24.3963L19.2687 24.3967V24.3963H18.7687ZM18.3956 24.954L18.5869 25.416L18.5869 25.416L18.3956 24.954ZM17.7375 24.8233L17.384 25.1768L17.3842 25.1771L17.7375 24.8233ZM13.9352 21.0209L14.2887 20.6674C14.195 20.5736 14.0678 20.5209 13.9352 20.5209V21.0209ZM10.5695 19.9302L10.0873 20.0626L10.0875 20.0633L10.5695 19.9302ZM10.3101 18L10.8101 18.0005V18H10.3101ZM10.5695 16.0698L10.0875 15.9368L10.0874 15.9371L10.5695 16.0698ZM12.1307 14.979L12.1307 14.479H12.1307V14.979ZM23.5418 13.2268C26.178 15.863 26.178 20.137 23.5418 22.7732L24.2489 23.4803C27.2756 20.4536 27.2756 15.5464 24.2489 12.5197L23.5418 13.2268ZM21.4062 15.3632C22.8623 16.8195 22.8623 19.1805 21.4062 20.6368L22.1134 21.3438C23.9599 19.497 23.9599 16.503 22.1134 14.6562L21.4062 15.3632ZM14.2887 15.3326L18.0911 11.5303L17.384 10.8232L13.5816 14.6255L14.2887 15.3326ZM18.0909 11.5305C18.1207 11.5007 18.1654 11.4918 18.2043 11.5079L18.5869 10.584C18.1745 10.4133 17.7 10.5076 17.3842 10.8229L18.0909 11.5305ZM18.2043 11.5079C18.2432 11.524 18.2686 11.562 18.2687 11.6041L19.2687 11.6032C19.2683 11.1569 18.9993 10.7547 18.5869 10.584L18.2043 11.5079ZM18.2687 11.6037V24.3963H19.2687V11.6037H18.2687ZM18.2687 24.3959C18.2686 24.438 18.2433 24.4759 18.2043 24.4921L18.5869 25.416C18.9992 25.2452 19.2683 24.8431 19.2687 24.3967L18.2687 24.3959ZM18.2044 24.492C18.1654 24.5082 18.1207 24.4993 18.0909 24.4695L17.3842 25.1771C17.7 25.4924 18.1746 25.5867 18.5869 25.416L18.2044 24.492ZM18.0911 24.4697L14.2887 20.6674L13.5816 21.3745L17.384 25.1768L18.0911 24.4697ZM13.9352 20.5209H12.1307V21.5209H13.9352V20.5209ZM12.1307 20.5209C11.5965 20.5209 11.1677 20.2178 11.0514 19.797L10.0875 20.0633C10.3483 21.0072 11.2471 21.5209 12.1307 21.5209V20.5209ZM11.0516 19.7977C10.8907 19.2122 10.8095 18.6077 10.8101 18.0005L9.81006 17.9995C9.80939 18.6966 9.90265 19.3905 10.0873 20.0626L11.0516 19.7977ZM10.8101 18C10.8101 17.3766 10.8942 16.7743 11.0515 16.2025L10.0874 15.9371C9.90642 16.5946 9.81006 17.2862 9.81006 18H10.8101ZM11.0514 16.2028C11.1677 15.7816 11.5962 15.479 12.1307 15.479V14.479C11.2474 14.479 10.3483 14.9917 10.0875 15.9368L11.0514 16.2028ZM12.1307 15.479L13.9352 15.4791L13.9352 14.4791L12.1307 14.479L12.1307 15.479Z" fill="white"/>
</svg>
