<svg xmlns="http://www.w3.org/2000/svg" width="14.5" height="18.052" viewBox="0 0 14.5 18.052">
  <g id="Group_24534" data-name="Group 24534" transform="translate(-512.019 -220.019)">
    <g id="Group_24530" data-name="Group 24530" transform="translate(512.769 220.769)">
      <g id="Group_24529" data-name="Group 24529" transform="translate(0 0)">
        <g id="Group_24532" data-name="Group 24532">
          <path id="Path_17136" data-name="Path 17136" d="M9.683,2.094A1.808,1.808,0,0,0,7.95.75H5.55A1.808,1.808,0,0,0,3.817,2.094m5.865,0a1.884,1.884,0,0,1,.067.5.607.607,0,0,1-.6.615H4.35a.608.608,0,0,1-.6-.609,1.925,1.925,0,0,1,.067-.5M7.54,16.75H2.55A1.823,1.823,0,0,1,.75,14.9V4.039A1.773,1.773,0,0,1,2.276,2.245q.769-.092,1.541-.151M9.683,2.1q.779.06,1.541.151A1.774,1.774,0,0,1,12.75,4.045v6.289" transform="translate(-0.75 -0.75)" fill="none" stroke="#abb4c3" stroke-linecap="round" stroke-linejoin="round" stroke-width="1.5"/>
          <path id="Path_17137" data-name="Path 17137" d="M16.955,14.853a4.1,4.1,0,1,1-4.1-4.1A4.1,4.1,0,0,1,16.955,14.853Z" transform="translate(-3.955 -2.404)" fill="none" stroke="#abb4c3" stroke-linecap="round" stroke-linejoin="round" stroke-width="1.5"/>
          <path id="Path_17255" data-name="Path 17255" d="M6.782,12.944" fill="none" stroke="#707070" stroke-linecap="round" stroke-width="1"/>
          <path id="Path_17256" data-name="Path 17256" d="M6.853,12.944H6.834" transform="translate(0 -0.495)" fill="none" stroke="#abb4c3" stroke-linecap="round" stroke-width="1"/>
          <path id="Path_17257" data-name="Path 17257" d="M6.853,12.944H6.834" transform="translate(2 -0.495)" fill="none" stroke="#abb4c3" stroke-linecap="round" stroke-width="1"/>
          <path id="Path_17258" data-name="Path 17258" d="M6.853,12.944H6.834" transform="translate(4 -0.495)" fill="none" stroke="#abb4c3" stroke-linecap="round" stroke-width="1"/>
        </g>
      </g>
    </g>
  </g>
</svg>
