<svg xmlns="http://www.w3.org/2000/svg" width="21.5" height="19.5" viewBox="0 0 21.5 19.5">
  <path id="Path_16033" data-name="Path 16033" d="M6.745,10.5A2.724,2.724,0,0,0,8.828,9.42a9.22,9.22,0,0,1,2.934-2.4,3.507,3.507,0,0,0,1.7-1.715,4.4,4.4,0,0,0,.33-1.672V3a.76.76,0,0,1,.769-.75A2.279,2.279,0,0,1,16.865,4.5a7.327,7.327,0,0,1-.742,3.218A.887.887,0,0,0,16.867,9h3.206a2.034,2.034,0,0,1,2.107,1.715,11.782,11.782,0,0,1-2.647,8.806,2.115,2.115,0,0,1-1.646.729H13.768a4.755,4.755,0,0,1-1.459-.23L9.115,18.98a4.724,4.724,0,0,0-1.459-.23H6M14.558,9h2.308M6,18.75c.085.2.177.405.277.6a.618.618,0,0,1-.536.9H4.807a2.064,2.064,0,0,1-2.023-1.368,11.774,11.774,0,0,1,.318-7.9A2.078,2.078,0,0,1,5.071,9.75h1.08a.628.628,0,0,1,.513.96A8.82,8.82,0,0,0,6,18.75Z" transform="translate(-1.5 -1.5)" fill="none" stroke="#b0b7cf" stroke-linecap="round" stroke-linejoin="round" stroke-width="1.5"/>
</svg>
