<svg xmlns="http://www.w3.org/2000/svg" width="16.5" height="20.5" viewBox="0 0 16.5 20.5">
  <g id="Approve" transform="translate(-511.572 -219.981)">
    <g id="Group_24530" data-name="Group 24530" transform="translate(512.322 220.769)">
      <g id="Group_24529" data-name="Group 24529" transform="translate(0 0)">
        <g id="Group_24532" data-name="Group 24532">
          <path id="Path_17136" data-name="Path 17136" d="M9.683,2.094A1.808,1.808,0,0,0,7.95.75H5.55A1.808,1.808,0,0,0,3.817,2.094m5.865,0a1.884,1.884,0,0,1,.067.5.607.607,0,0,1-.6.615H4.35a.608.608,0,0,1-.6-.609,1.925,1.925,0,0,1,.067-.5M4.35,16.75H2.55A1.823,1.823,0,0,1,.75,14.9V4.039A1.773,1.773,0,0,1,2.276,2.245q.769-.092,1.541-.151M9.683,2.1q.779.06,1.541.151A1.774,1.774,0,0,1,12.75,4.045v4.5" transform="translate(-0.75 -0.789)" fill="none" stroke="#fff" stroke-linecap="round" stroke-linejoin="round" stroke-width="1.5"/>
          <path id="Path_17137" data-name="Path 17137" d="M12.751,17.25l1.5,1.5,2.5-3.5m4,1.5a6,6,0,1,1-6-6A6,6,0,0,1,20.75,16.75Z" transform="translate(-5.75 -3.789)" fill="none" stroke="#fff" stroke-linecap="round" stroke-linejoin="round" stroke-width="1.5"/>
        </g>
      </g>
    </g>
  </g>
</svg>
