<svg xmlns="http://www.w3.org/2000/svg" width="13" height="16" viewBox="0 0 13 16">
  <path id="Path_16029" data-name="Path 16029" d="M7.568,9.75H10.3M7.568,12.058H10.3M7.568,14.365H10.3m2.182.577h1.636a1.686,1.686,0,0,0,1.636-1.731V5.218a1.642,1.642,0,0,0-1.437-1.686Q13.9,3.5,13.5,3.47m-4.219,0a1.817,1.817,0,0,0-.073.511.562.562,0,0,0,.545.577h3.273a.562.562,0,0,0,.545-.577A1.823,1.823,0,0,0,13.5,3.47m-4.218,0a1.65,1.65,0,0,1,1.564-1.22h1.091A1.651,1.651,0,0,1,13.5,3.47m-4.218,0q-.41.027-.817.062A1.642,1.642,0,0,0,7.023,5.218V6.865m0,0H4.568a.843.843,0,0,0-.818.865v8.654a.843.843,0,0,0,.818.865h7.091a.843.843,0,0,0,.818-.865V7.731a.843.843,0,0,0-.818-.865ZM5.932,9.75Zm0,2.308h.006v.006H5.932Zm0,2.308h.006v.006H5.932Z" transform="translate(-3.25 -1.75)" fill="none" stroke="#abb4c3" stroke-linecap="round" stroke-linejoin="round" stroke-width="1"/>
</svg>
