<svg width="24" height="24" viewBox="0 0 24 24" fill="none" xmlns="http://www.w3.org/2000/svg">
<g id="Group 22004">
<path id="Ellipse 1272" fill-rule="evenodd" clip-rule="evenodd" d="M12 24C18.6274 24 24 18.6274 24 12C24 5.37258 18.6274 0 12 0C5.37258 0 0 5.37258 0 12C0 18.6274 5.37258 24 12 24Z" fill="white"/>
<path id="Path 17123" fill-rule="evenodd" clip-rule="evenodd" d="M5.00001 12.5572C5.00001 13.7059 5.80627 14.7067 6.9435 14.874C7.72391 14.9889 8.51222 15.0772 9.30771 15.1389V18.4731L12.2341 15.5467C12.4325 15.3495 12.6989 15.2358 12.9786 15.2287C14.3437 15.1909 15.7054 15.0725 17.0565 14.874C18.1938 14.7067 19 13.7066 19 12.5565V8.23585C19 7.0857 18.1938 6.08559 17.0565 5.91831C15.3822 5.67256 13.6922 5.54947 12 5.55C10.2827 5.55 8.59406 5.67564 6.94349 5.9183C5.80626 6.08558 5 7.0864 5 8.23584V12.5565L5.00001 12.5572Z" stroke="#3B41E3" stroke-linecap="round" stroke-linejoin="round"/>
<path id="Path 17251" d="M9.80908 10.8168L11.4526 12.4603L14.1903 8.627" stroke="#3B41E3" stroke-linecap="round" stroke-linejoin="round"/>
</g>
</svg>
