<svg width="24" height="24" viewBox="0 0 24 24" fill="none" xmlns="http://www.w3.org/2000/svg">
<g id="Sahayya Close Button - Small">
<path id="Ellipse 82" fill-rule="evenodd" clip-rule="evenodd" d="M12 24C18.6274 24 24 18.6274 24 12C24 5.37258 18.6274 0 12 0C5.37258 0 0 5.37258 0 12C0 18.6274 5.37258 24 12 24Z" fill="white"/>
<path id="Path 16023" d="M7.64645 15.6464C7.45118 15.8417 7.45118 16.1583 7.64645 16.3536C7.84171 16.5488 8.15829 16.5488 8.35355 16.3536L7.64645 15.6464ZM16.3536 8.35355C16.5488 8.15829 16.5488 7.84171 16.3536 7.64645C16.1583 7.45118 15.8417 7.45118 15.6464 7.64645L16.3536 8.35355ZM8.35355 7.64645C8.15829 7.45118 7.84171 7.45118 7.64645 7.64645C7.45118 7.84171 7.45118 8.15829 7.64645 8.35355L8.35355 7.64645ZM15.6464 16.3536C15.8417 16.5488 16.1583 16.5488 16.3536 16.3536C16.5488 16.1583 16.5488 15.8417 16.3536 15.6464L15.6464 16.3536ZM8.35355 16.3536L16.3536 8.35355L15.6464 7.64645L7.64645 15.6464L8.35355 16.3536ZM7.64645 8.35355L15.6464 16.3536L16.3536 15.6464L8.35355 7.64645L7.64645 8.35355Z" fill="#74829C"/>
</g>
</svg>
