<svg width="16" height="16" viewBox="0 0 16 16" fill="none" xmlns="http://www.w3.org/2000/svg">
<path fill-rule="evenodd" clip-rule="evenodd" d="M-0.000488281 8C-0.000488281 5.87827 0.842382 3.84347 2.34258 2.34307C3.84285 0.8428 5.87778 0 7.99951 0C10.1212 0 12.156 0.84287 13.6564 2.34307C15.1567 3.84334 15.9995 5.87827 15.9995 8C15.9995 10.1217 15.1566 12.1565 13.6564 13.6569C12.1562 15.1572 10.1212 16 7.99951 16C5.87778 16 3.84298 15.1571 2.34258 13.6569C0.842312 12.1567 -0.000488281 10.1217 -0.000488281 8ZM0.999512 8C0.999512 9.85653 1.737 11.6369 3.04978 12.9497C4.36255 14.2625 6.14298 15 7.99951 15C9.85604 15 11.6364 14.2625 12.9492 12.9497C14.262 11.637 14.9995 9.85654 14.9995 8C14.9995 6.14347 14.262 4.36307 12.9492 3.05027C11.6365 1.73747 9.85604 1 7.99951 1C6.14471 1.00568 4.36751 1.745 3.05604 3.05653C1.74457 4.36806 1.00524 6.1452 0.999512 8ZM8.31778 11.0415C8.22408 10.9477 8.17142 10.8205 8.17142 10.688C8.17142 10.5554 8.22408 10.4282 8.31778 10.3344L10.1578 8.49468H4.49458C4.31594 8.49468 4.15089 8.39937 4.06155 8.24468C3.97223 8.08999 3.97223 7.89937 4.06155 7.74468C4.15087 7.58999 4.31592 7.49468 4.49458 7.49468H10.1266L8.31778 5.68588C8.19153 5.55958 8.14221 5.37541 8.18846 5.20291C8.23476 5.03036 8.36955 4.89562 8.5421 4.84936C8.71465 4.80316 8.89877 4.85254 9.02507 4.97889L11.9783 8.01036L9.02454 11.0413C8.93079 11.1351 8.80355 11.1878 8.6709 11.1878C8.5383 11.1878 8.41106 11.1351 8.3173 11.0413L8.31778 11.0415Z" fill="white"/>
</svg>
