<svg xmlns="http://www.w3.org/2000/svg" width="24" height="24" viewBox="0 0 24 24">
  <g id="Group_22004" data-name="Group 22004" transform="translate(-1264 -398)">
    <circle id="Ellipse_1272" data-name="Ellipse 1272" cx="12" cy="12" r="12" transform="translate(1264 398)" fill="#fff"/>
    <path id="Path_17279" data-name="Path 17279" d="M12.477,13.159v2.455a.818.818,0,0,1-.818.818H4.568a.818.818,0,0,1-.818-.818V6.341a.818.818,0,0,1,.818-.818H5.932a6.589,6.589,0,0,1,1.091.09m5.455,7.546h2.455a.818.818,0,0,0,.818-.818V8.8A6.537,6.537,0,0,0,9.2,2.25H7.841a.818.818,0,0,0-.818.818V5.614m5.455,7.545H7.841a.818.818,0,0,1-.818-.818V5.614m8.727,4.818V9.068A2.455,2.455,0,0,0,13.3,6.614H12.2a.818.818,0,0,1-.818-.818V4.7A2.455,2.455,0,0,0,8.932,2.25H8.114" transform="translate(1266.252 400.659)" fill="none" stroke="#b0b7cf" stroke-linecap="round" stroke-linejoin="round" stroke-width="1.5"/>
  </g>
</svg>
