<svg xmlns="http://www.w3.org/2000/svg" width="15" height="15.115" viewBox="0 0 15 15.115">
  <path id="Path_17026" data-name="Path 17026" d="M13.35,3.92l1.26-1.26a1.4,1.4,0,0,1,1.98,1.98L8.661,12.569a3.36,3.36,0,0,1-1.416.844l-2,.6.6-2a3.36,3.36,0,0,1,.844-1.416L13.35,3.92Zm0,0,1.97,1.97M14.2,11.023V14.57a1.68,1.68,0,0,1-1.68,1.68H4.68A1.68,1.68,0,0,1,3,14.57V6.73A1.68,1.68,0,0,1,4.68,5.05H8.227" transform="translate(-2.5 -1.635)" fill="none" stroke="#b0b7cf" stroke-linecap="round" stroke-linejoin="round" stroke-width="1"/>
</svg>
