<svg width="96" height="123" viewBox="0 0 96 123" fill="none" xmlns="http://www.w3.org/2000/svg">
<g id="Group 24231" opacity="0.5">
<path id="Path 17279" d="M90 75C90 76.6569 91.3431 78 93 78C94.6569 78 96 76.6569 96 75H90ZM25.5 0C23.8431 0 22.5 1.34315 22.5 3C22.5 4.65685 23.8431 6 25.5 6V0ZM96 75V59.25H90V75H96ZM96 59.25C96 46.4094 85.5906 36 72.75 36V42C82.2769 42 90 49.7231 90 59.25H96ZM72.75 36H63.75V42H72.75V36ZM63.75 36C61.6789 36 60 34.3211 60 32.25H54C54 37.6348 58.3652 42 63.75 42V36ZM60 32.25V23.25H54V32.25H60ZM60 23.25C60 10.4094 49.5906 0 36.75 0V6C46.2769 6 54 13.7231 54 23.25H60ZM36.75 0H25.5V6H36.75V0ZM39 0H9.75V6H39V0ZM9.75 0C4.36715 0 0 4.36715 0 9.75H6C6 7.68085 7.68085 6 9.75 6V0ZM0 9.75V113.25H6V9.75H0ZM0 113.25C0 118.633 4.36715 123 9.75 123V117C7.68085 117 6 115.319 6 113.25H0ZM9.75 123H86.25V117H9.75V123ZM86.25 123C91.6329 123 96 118.633 96 113.25H90C90 115.319 88.3191 117 86.25 117V123ZM96 113.25V57H90V113.25H96ZM96 57C96 25.5198 70.4802 0 39 0V6C67.1665 6 90 28.8335 90 57H96Z" fill="#3B41E3" fill-opacity="0.3"/>
</g>
</svg>
