<svg xmlns="http://www.w3.org/2000/svg" width="10" height="13" viewBox="0 0 10 13">
  <path id="Path_16028" data-name="Path 16028" d="M13.5,9.635V8.019a2.051,2.051,0,0,0-2.025-2.077h-.9A.684.684,0,0,1,9.9,5.25V4.327A2.051,2.051,0,0,0,7.875,2.25H6.75m0,7.846h4.5m-4.5,1.846H9M8.1,2.25H5.175a.684.684,0,0,0-.675.692V13.558a.684.684,0,0,0,.675.692h7.65a.684.684,0,0,0,.675-.692V7.788A5.471,5.471,0,0,0,8.1,2.25Z" transform="translate(-4 -1.75)" fill="none" stroke="#abb4c3" stroke-linecap="round" stroke-linejoin="round" stroke-width="1"/>
</svg>
