<svg width="24" height="24" viewBox="0 0 24 24" fill="none" xmlns="http://www.w3.org/2000/svg">
<g id="Download">
<path id="Path 17111" d="M5.5 15.5C5.5 15.2239 5.27614 15 5 15C4.72386 15 4.5 15.2239 4.5 15.5H5.5ZM19.5 15.5C19.5 15.2239 19.2761 15 19 15C18.7239 15 18.5 15.2239 18.5 15.5H19.5ZM15.8536 12.3536C16.0488 12.1583 16.0488 11.8417 15.8536 11.6464C15.6583 11.4512 15.3417 11.4512 15.1464 11.6464L15.8536 12.3536ZM11.6464 15.1464C11.4512 15.3417 11.4512 15.6583 11.6464 15.8536C11.8417 16.0488 12.1583 16.0488 12.3536 15.8536L11.6464 15.1464ZM11.6464 15.8536C11.8417 16.0488 12.1583 16.0488 12.3536 15.8536C12.5488 15.6583 12.5488 15.3417 12.3536 15.1464L11.6464 15.8536ZM8.85355 11.6464C8.65829 11.4512 8.34171 11.4512 8.14645 11.6464C7.95118 11.8417 7.95118 12.1583 8.14645 12.3536L8.85355 11.6464ZM11.5 15.5C11.5 15.7761 11.7239 16 12 16C12.2761 16 12.5 15.7761 12.5 15.5H11.5ZM12.5 5C12.5 4.72386 12.2761 4.5 12 4.5C11.7239 4.5 11.5 4.72386 11.5 5H12.5ZM4.5 15.5V17.25H5.5V15.5H4.5ZM4.5 17.25C4.5 18.4926 5.50736 19.5 6.75 19.5V18.5C6.05964 18.5 5.5 17.9404 5.5 17.25H4.5ZM6.75 19.5H17.25V18.5H6.75V19.5ZM17.25 19.5C18.4926 19.5 19.5 18.4926 19.5 17.25H18.5C18.5 17.9404 17.9404 18.5 17.25 18.5V19.5ZM19.5 17.25V15.5H18.5V17.25H19.5ZM15.1464 11.6464L11.6464 15.1464L12.3536 15.8536L15.8536 12.3536L15.1464 11.6464ZM12.3536 15.1464L8.85355 11.6464L8.14645 12.3536L11.6464 15.8536L12.3536 15.1464ZM12.5 15.5V5H11.5V15.5H12.5Z" fill="#74829C"/>
</g>
</svg>
