<svg xmlns="http://www.w3.org/2000/svg" width="17.5" height="17.643" viewBox="0 0 17.5 17.643">
  <path id="Path_17006" data-name="Path 17006" d="M14.829,4.159l1.44-1.44a1.6,1.6,0,0,1,2.263,2.263L9.47,14.043a3.84,3.84,0,0,1-1.619.964L5.56,15.69,6.243,13.4a3.84,3.84,0,0,1,.964-1.619Zm0,0L17.08,6.41M15.8,12.276V16.33a1.92,1.92,0,0,1-1.92,1.92H4.92A1.92,1.92,0,0,1,3,16.33V7.37A1.92,1.92,0,0,1,4.92,5.45H8.973" transform="translate(-2.25 -1.357)" fill="none" stroke="#3b41e3" stroke-linecap="round" stroke-linejoin="round" stroke-width="1.5"/>
</svg>
