<svg width="15" height="12" viewBox="0 0 15 12" fill="none" xmlns="http://www.w3.org/2000/svg">
<path fill-rule="evenodd" clip-rule="evenodd" d="M1.03359 6.21467C0.988803 6.0764 0.988803 5.92694 1.03359 5.78867C1.93373 3.00667 4.48879 1 7.50008 1C10.5101 1 13.0638 3.00467 13.9659 5.78533C14.0114 5.92333 14.0114 6.07266 13.9659 6.21133C13.0664 8.99333 10.5114 11 7.50008 11C4.49008 11 1.93633 8.99533 1.03424 6.21467H1.03359Z" stroke="#B0B7CF" stroke-linecap="round" stroke-linejoin="round"/>
<path fill-rule="evenodd" clip-rule="evenodd" d="M9.49902 6C9.49902 7.10457 8.60359 8 7.49902 8C6.39445 8 5.49902 7.10457 5.49902 6C5.49902 4.89543 6.39445 4 7.49902 4C8.60359 4 9.49902 4.89543 9.49902 6Z" stroke="#B0B7CF" stroke-linecap="round" stroke-linejoin="round"/>
</svg>
