<svg xmlns="http://www.w3.org/2000/svg" width="13.004" height="9" viewBox="0 0 13.004 9">
  <g id="Group_21121" data-name="Group 21121" transform="translate(-1.482 -4)">
    <path id="Path_12281" data-name="Path 12281" d="M2.015,8.672a.484.484,0,0,1,0-.341A6.27,6.27,0,0,1,7.984,4.5a6.272,6.272,0,0,1,5.968,3.828.477.477,0,0,1,0,.341A6.269,6.269,0,0,1,7.984,12.5,6.272,6.272,0,0,1,2.016,8.672Z" fill="none" stroke="#74829c" stroke-linecap="round" stroke-linejoin="round" stroke-width="1"/>
    <path id="Path_12282" data-name="Path 12282" d="M13.136,11.068A2.068,2.068,0,1,1,11.068,9,2.068,2.068,0,0,1,13.136,11.068Z" transform="translate(-3.084 -2.568)" fill="none" stroke="#74829c" stroke-linecap="round" stroke-linejoin="round" stroke-width="1"/>
  </g>
</svg>
