<svg xmlns="http://www.w3.org/2000/svg" width="17.5" height="17.5" viewBox="0 0 17.5 17.5">
  <path id="Path_16013" data-name="Path 16013" d="M11,3a42.913,42.913,0,0,1,7.185.6A.984.984,0,0,1,19,4.577V5.5a2,2,0,0,1-.586,1.414l-4.828,4.828A2,2,0,0,0,13,13.162v2.6a2,2,0,0,1-1.106,1.79L9,19V13.162a2,2,0,0,0-.586-1.414L3.586,6.919A2,2,0,0,1,3,5.5V4.577A.984.984,0,0,1,3.815,3.6,42.951,42.951,0,0,1,11,3Z" transform="translate(-2.25 -2.25)" fill="none" stroke="#3b41e3" stroke-linecap="round" stroke-linejoin="round" stroke-width="1.5"/>
</svg>
