<svg xmlns="http://www.w3.org/2000/svg" width="14.111" height="14.4" viewBox="0 0 14.111 14.4">
  <g id="Group_12334" data-name="Group 12334" transform="translate(-8.801 -8.8)">
    <path id="Path_11217" data-name="Path 11217" d="M26.912,19.837a8.214,8.214,0,0,0-.131-1.473H20v2.784h3.875a3.316,3.316,0,0,1-1.437,2.174v1.806h2.326a7.02,7.02,0,0,0,2.147-5.291" transform="translate(-4 -3.673)" fill="#4285f4" fill-rule="evenodd"/>
    <path id="Path_11218" data-name="Path 11218" d="M18.391,27.542A6.875,6.875,0,0,0,23.156,25.8L20.83,23.991a4.344,4.344,0,0,1-6.467-2.281H11.957v1.866a7.2,7.2,0,0,0,6.434,3.966" transform="translate(-2.391 -4.342)" fill="#34a853" fill-rule="evenodd"/>
    <path id="Path_11219" data-name="Path 11219" d="M14.171,20.56a4.26,4.26,0,0,1,0-2.736V15.958H11.766a7.212,7.212,0,0,0,0,6.467Z" transform="translate(-2.199 -3.191)" fill="#fbbc05" fill-rule="evenodd"/>
    <path id="Path_11220" data-name="Path 11220" d="M18.391,13.864a3.888,3.888,0,0,1,2.752,1.077l2.066-2.066A6.921,6.921,0,0,0,18.391,11a7.2,7.2,0,0,0-6.434,3.966l2.406,1.866a4.291,4.291,0,0,1,4.029-2.968" transform="translate(-2.391 -2.2)" fill="#ea4335" fill-rule="evenodd"/>
  </g>
</svg>
