<svg xmlns="http://www.w3.org/2000/svg" width="13" height="12.077" viewBox="0 0 13 12.077">
  <path id="Path_17254" data-name="Path 17254" d="M2.25,14.077h12M3.173,3V14.077M9.635,3V14.077m3.692-8.308v8.308M5.019,5.308h.462M5.019,7.154h.462M5.019,9h.462M7.327,5.308h.462M7.327,7.154h.462M7.327,9h.462M5.019,14.077V12a.693.693,0,0,1,.692-.692H7.1A.693.693,0,0,1,7.788,12v2.077M2.712,3H10.1M9.635,5.769h4.154M11.481,8.077h0v0h0Zm0,1.846h0v0h0Zm0,1.846h0v0h0Z" transform="translate(-1.75 -2.5)" fill="none" stroke="#abb4c3" stroke-linecap="round" stroke-linejoin="round" stroke-width="1"/>
</svg>
