<svg width="14" height="14" viewBox="0 0 14 14" fill="none" xmlns="http://www.w3.org/2000/svg">
<path d="M8.05545 4.28504C7.68165 4.10657 7.23395 4.26492 7.05549 4.63871C6.87702 5.01251 7.03537 5.46021 7.40916 5.63867L8.05545 4.28504ZM9.26857 6.99289L8.52935 7.11963L8.52935 7.11964L9.26857 6.99289ZM8.49661 9.41968L7.96647 8.88917L7.96628 8.88935L8.49661 9.41968ZM1.81109 8.2726L1.28076 7.74227L1.28076 7.74227L1.81109 8.2726ZM3.42266 7.72171C3.71555 7.42881 3.71555 6.95394 3.42266 6.66104C3.12976 6.36815 2.65489 6.36815 2.36199 6.66104L3.42266 7.72171ZM10.5773 6.2783C10.2845 6.57119 10.2845 7.04606 10.5773 7.33896C10.8702 7.63185 11.3451 7.63185 11.638 7.33896L10.5773 6.2783ZM12.1889 1.81109L11.6586 2.34142L11.6586 2.34143L12.1889 1.81109ZM8.2726 1.81109L7.74227 1.28076L8.2726 1.81109ZM5.50338 4.58032L6.03353 5.11083L6.03371 5.11065L5.50338 4.58032ZM5.94455 9.71496C6.31835 9.89343 6.76605 9.73508 6.94451 9.36129C7.12298 8.98749 6.96463 8.53979 6.59084 8.36133L5.94455 9.71496ZM7.40916 5.63867C8.00086 5.92117 8.41856 6.47339 8.52935 7.11963L10.0078 6.86616C9.81468 5.73984 9.08669 4.7774 8.05545 4.28504L7.40916 5.63867ZM8.52935 7.11964C8.64015 7.76587 8.43027 8.42569 7.96647 8.88917L9.02676 9.9502C9.83508 9.14244 10.2009 7.99248 10.0078 6.86615L8.52935 7.11964ZM7.96628 8.88935L5.19706 11.6586L6.25773 12.7192L9.02695 9.95001L7.96628 8.88935ZM5.19706 11.6586C4.4085 12.4471 3.12999 12.4471 2.34143 11.6586L1.28076 12.7192C2.65512 14.0936 4.88337 14.0936 6.25773 12.7192L5.19706 11.6586ZM2.34143 11.6586C1.55286 10.87 1.55286 9.5915 2.34143 8.80294L1.28076 7.74227C-0.0935883 9.11663 -0.0935883 11.3449 1.28076 12.7192L2.34143 11.6586ZM2.34143 8.80294L3.42266 7.72171L2.36199 6.66104L1.28076 7.74227L2.34143 8.80294ZM11.638 7.33896L12.7192 6.25773L11.6586 5.19706L10.5773 6.2783L11.638 7.33896ZM12.7192 6.25773C14.0936 4.88337 14.0936 2.65512 12.7192 1.28076L11.6586 2.34143C12.4471 3.12999 12.4471 4.4085 11.6586 5.19706L12.7192 6.25773ZM12.7192 1.28077C11.3449 -0.0935905 9.11663 -0.0935869 7.74227 1.28076L8.80294 2.34143C9.5915 1.55286 10.87 1.55286 11.6586 2.34142L12.7192 1.28077ZM7.74227 1.28076L4.97305 4.04999L6.03371 5.11065L8.80294 2.34143L7.74227 1.28076ZM4.97324 4.0498C4.1649 4.85756 3.79911 6.00752 3.99222 7.13385L5.47065 6.88036C5.35984 6.23411 5.56973 5.57431 6.03353 5.11083L4.97324 4.0498ZM3.99222 7.13385C4.18534 8.26017 4.91331 9.2226 5.94455 9.71496L6.59084 8.36133C5.99914 8.07883 5.58145 7.52662 5.47065 6.88036L3.99222 7.13385Z" fill="#3B41E3"/>
</svg>
