<svg xmlns="http://www.w3.org/2000/svg" width="26" height="25" viewBox="0 0 26 25">
  <g id="Group_22241" data-name="Group 22241" transform="translate(-671.541 -738.755)">
    <g id="loading-_1_" transform="translate(671.541 738.755)">
      <path id="Path_16544" data-name="Path 16544" d="M246.006-511.6a1.2,1.2,0,0,0-.834.748c-.04.131-.051,1.016-.04,2.844l.015,2.653.141.212a1.108,1.108,0,0,0,.869.51,1.051,1.051,0,0,0,.889-.278c.374-.339.374-.318.374-3.249,0-2.87.015-2.738-.323-3.1A1.208,1.208,0,0,0,246.006-511.6Z" transform="translate(-233.357 511.622)" fill="#b0b7cf"/>
      <path id="Path_16545" data-name="Path 16545" d="M80.945-443.349A1.2,1.2,0,0,0,80-442.227c0,.44.02.47,1.965,2.43a23.9,23.9,0,0,0,2.051,1.955,1.2,1.2,0,0,0,1.218-.167,1.168,1.168,0,0,0,.349-1.258c-.081-.253-.222-.4-1.854-2.046a23.216,23.216,0,0,0-2.006-1.9A1.09,1.09,0,0,0,80.945-443.349Z" transform="translate(-76.572 446.821)" fill="#b0b7cf" opacity="0.9"/>
      <path id="Path_16546" data-name="Path 16546" d="M13-278.688a1.111,1.111,0,0,0-.753.662,1.1,1.1,0,0,0,0,.909,1.061,1.061,0,0,0,.525.571c.2.111.237.111,2.885.111h2.683l.248-.152a1.366,1.366,0,0,0,.4-.4.889.889,0,0,0,.152-.586.889.889,0,0,0-.152-.586,1.366,1.366,0,0,0-.4-.4l-.248-.152-2.607-.01C14.3-278.723,13.072-278.708,13-278.688Z" transform="translate(-12.15 290.487)" fill="#b0b7cf" opacity="0.75"/>
    </g>
    <g id="loading-_1_2" data-name="loading-_1_" transform="translate(688.469 742.204)">
      <path id="Path_16545-2" data-name="Path 16545" d="M84.7-443.349a1.2,1.2,0,0,1,.945,1.122c0,.44-.02.47-1.965,2.43a23.888,23.888,0,0,1-2.051,1.955,1.2,1.2,0,0,1-1.218-.167,1.168,1.168,0,0,1-.349-1.258c.081-.253.222-.4,1.854-2.046a23.225,23.225,0,0,1,2.006-1.9A1.09,1.09,0,0,1,84.7-443.349Z" transform="translate(-80 443.373)" fill="#b0b7cf" opacity="0.1"/>
      <path id="Path_16546-2" data-name="Path 16546" d="M18.289-278.688a1.111,1.111,0,0,1,.753.662,1.1,1.1,0,0,1,0,.909,1.061,1.061,0,0,1-.525.571c-.2.111-.237.111-2.885.111H12.948l-.248-.152a1.366,1.366,0,0,1-.4-.4.889.889,0,0,1-.152-.586.889.889,0,0,1,.152-.586,1.366,1.366,0,0,1,.4-.4l.248-.152,2.607-.01C16.99-278.723,18.218-278.708,18.289-278.688Z" transform="translate(-10.068 287.038)" fill="#b0b7cf" opacity="0.2"/>
    </g>
    <g id="loading-_1_3" data-name="loading-_1_" transform="translate(674.969 754.681)">
      <path id="Path_16544-2" data-name="Path 16544" d="M246.006-504.648a1.2,1.2,0,0,1-.834-.748c-.04-.131-.051-1.016-.04-2.845l.015-2.653.141-.212a1.108,1.108,0,0,1,.869-.51,1.051,1.051,0,0,1,.889.278c.374.339.374.318.374,3.249,0,2.87.015,2.738-.323,3.1A1.208,1.208,0,0,1,246.006-504.648Z" transform="translate(-236.785 513.697)" fill="#b0b7cf" opacity="0.5"/>
      <path id="Path_16545-3" data-name="Path 16545" d="M80.945-437.77A1.2,1.2,0,0,1,80-438.892c0-.44.02-.47,1.965-2.43a23.893,23.893,0,0,1,2.051-1.955,1.2,1.2,0,0,1,1.218.167,1.168,1.168,0,0,1,.349,1.258c-.081.253-.222.4-1.854,2.046a23.231,23.231,0,0,1-2.006,1.9A1.09,1.09,0,0,1,80.945-437.77Z" transform="translate(-80 443.373)" fill="#b0b7cf" opacity="0.6"/>
    </g>
    <g id="loading-_1_4" data-name="loading-_1_" transform="translate(688.469 754.681)" opacity="0.4">
      <path id="Path_16545-4" data-name="Path 16545" d="M84.7-437.77a1.2,1.2,0,0,0,.945-1.122c0-.44-.02-.47-1.965-2.43a23.894,23.894,0,0,0-2.051-1.955,1.2,1.2,0,0,0-1.218.167,1.168,1.168,0,0,0-.349,1.258c.081.253.222.4,1.854,2.046a23.219,23.219,0,0,0,2.006,1.9A1.09,1.09,0,0,0,84.7-437.77Z" transform="translate(-80 443.373)" fill="#b0b7cf"/>
    </g>
  </g>
</svg>
