<svg xmlns="http://www.w3.org/2000/svg" width="24" height="24" viewBox="0 0 24 24">
  <g id="Group_22004" data-name="Group 22004" transform="translate(-1264 -398)">
    <circle id="Ellipse_1272" data-name="Ellipse 1272" cx="12" cy="12" r="12" transform="translate(1264 398)" fill="#fff"/>
    <path id="Path_17164" data-name="Path 17164" d="M16.25,6.115v7.538a1.615,1.615,0,0,1-1.615,1.615H3.865A1.615,1.615,0,0,1,2.25,13.654V6.115m14,0A1.615,1.615,0,0,0,14.635,4.5H3.865A1.615,1.615,0,0,0,2.25,6.115m14,0V6.29a1.615,1.615,0,0,1-.768,1.376L10.1,10.979a1.615,1.615,0,0,1-1.694,0L3.018,7.666A1.615,1.615,0,0,1,2.25,6.291V6.115" transform="translate(1266.75 400.115)" fill="none" stroke="#3b41e3" stroke-linecap="round" stroke-linejoin="round" stroke-width="1.5"/>
  </g>
</svg>
