<svg width="16" height="14" viewBox="0 0 16 14" fill="none" xmlns="http://www.w3.org/2000/svg">
<path d="M15.75 3.23037C15.75 2.81616 15.4142 2.48037 15 2.48037C14.5858 2.48037 14.25 2.81616 14.25 3.23037H15.75ZM1.00001 10.7688L1.75001 10.7688V10.7688H1.00001ZM1.75001 3.23036C1.75001 2.81615 1.41422 2.48036 1.00001 2.48036C0.585796 2.48036 0.25001 2.81615 0.25001 3.23036H1.75001ZM14.25 3.23037C14.25 3.64458 14.5858 3.98037 15 3.98037C15.4142 3.98037 15.75 3.64458 15.75 3.23037H14.25ZM0.25001 3.23039C0.250015 3.6446 0.585805 3.98038 1.00002 3.98038C1.41423 3.98038 1.75001 3.64459 1.75001 3.23037L0.25001 3.23039ZM15.75 3.23037C15.75 2.81616 15.4142 2.48037 15 2.48037C14.5858 2.48037 14.25 2.81616 14.25 3.23037H15.75ZM14.2317 4.78051L14.6247 5.41927L14.6249 5.41914L14.2317 4.78051ZM8.84719 8.09375L8.45414 7.45499L8.45385 7.45517L8.84719 8.09375ZM7.15283 8.09375L7.54617 7.45517L7.54582 7.45495L7.15283 8.09375ZM1.76821 4.78113L1.37488 5.41972L1.37522 5.41993L1.76821 4.78113ZM1 3.40554L1.75 3.40562V3.40554H1ZM1.75 3.23036C1.75 2.81615 1.41421 2.48036 1 2.48036C0.585786 2.48036 0.25 2.81615 0.25 3.23036H1.75ZM14.25 3.23037V10.7688H15.75V3.23037H14.25ZM14.25 10.7688C14.25 11.2468 13.8626 11.6342 13.3846 11.6342V13.1342C14.691 13.1342 15.75 12.0752 15.75 10.7688H14.25ZM13.3846 11.6342H2.61539V13.1342H13.3846V11.6342ZM2.61539 11.6342C2.13745 11.6342 1.75 11.2468 1.75001 10.7688L0.25001 10.7688C0.249995 12.0752 1.30903 13.1342 2.61539 13.1342V11.6342ZM1.75001 10.7688V3.23036H0.25001V10.7688H1.75001ZM15.75 3.23037C15.75 1.924 14.691 0.86499 13.3846 0.86499V2.36499C13.8626 2.36499 14.25 2.75244 14.25 3.23037H15.75ZM13.3846 0.86499H2.61539V2.36499H13.3846V0.86499ZM2.61539 0.86499C1.30903 0.86499 0.249995 1.924 0.25001 3.23039L1.75001 3.23037C1.75 2.75244 2.13745 2.36499 2.61539 2.36499V0.86499ZM14.25 3.23037V3.40483H15.75V3.23037H14.25ZM14.25 3.40483C14.25 3.70548 14.0942 3.98438 13.8384 4.14188L14.6249 5.41914C15.3242 4.98854 15.75 4.22612 15.75 3.40483H14.25ZM13.8386 4.14175L8.45414 7.45499L9.24024 8.73251L14.6247 5.41927L13.8386 4.14175ZM8.45385 7.45517C8.17557 7.62658 7.82445 7.62658 7.54617 7.45517L6.75949 8.73233C7.52015 9.20086 8.47987 9.20086 9.24053 8.73233L8.45385 7.45517ZM7.54582 7.45495L2.1612 4.14233L1.37522 5.41993L6.75984 8.73255L7.54582 7.45495ZM2.16154 4.14255C1.90575 3.98499 1.74997 3.70605 1.75 3.40562L0.25 3.40546C0.249912 4.22662 0.67571 4.98907 1.37488 5.41972L2.16154 4.14255ZM1.75 3.40554V3.23036H0.25V3.40554H1.75Z" fill="#B0B7CF"/>
</svg>
