<svg width="18" height="16" viewBox="0 0 18 16" fill="none" xmlns="http://www.w3.org/2000/svg">
<path id="Path 17117" d="M6.69231 2.69191C7.10652 2.69191 7.44231 2.35612 7.44231 1.94191C7.44231 1.5277 7.10652 1.19191 6.69231 1.19191V2.69191ZM3.43241 3.16315L2.71565 2.94236L2.71558 2.94259L3.43241 3.16315ZM1.57693 9.19345L2.29359 9.41457L2.29376 9.41401L1.57693 9.19345ZM1.50001 9.70191L0.75001 9.70113V9.70191H1.50001ZM16.4231 9.19345L15.7062 9.41385L15.7064 9.4145L16.4231 9.19345ZM14.5692 3.16345L15.2861 2.94305L15.286 2.94279L14.5692 3.16345ZM12.9154 1.94191L12.9155 1.19191H12.9154V1.94191ZM11.3077 1.19191C10.8935 1.19191 10.5577 1.5277 10.5577 1.94191C10.5577 2.35612 10.8935 2.69191 11.3077 2.69191V1.19191ZM1.5 8.69191C1.08579 8.69191 0.75 9.0277 0.75 9.44191C0.75 9.85612 1.08579 10.1919 1.5 10.1919V8.69191ZM4.46923 9.44191L4.46942 8.69191H4.46923V9.44191ZM6.01692 10.3988L5.34606 10.7342L5.3461 10.7342L6.01692 10.3988ZM6.21384 10.7927L6.8847 10.4573L6.88466 10.4573L6.21384 10.7927ZM7.7623 11.7496V10.9996H7.76215L7.7623 11.7496ZM11.7863 10.7924L11.1155 10.457L11.1154 10.4572L11.7863 10.7924ZM11.9831 10.3988L12.6539 10.7343L12.6539 10.7342L11.9831 10.3988ZM13.5315 9.44192L13.5314 10.1919H13.5315V9.44192ZM16.5 10.1919C16.9142 10.1919 17.25 9.85613 17.25 9.44192C17.25 9.02771 16.9142 8.69192 16.5 8.69192V10.1919ZM9.75 1.36499C9.75 0.950777 9.41421 0.61499 9 0.61499C8.58579 0.61499 8.25 0.950777 8.25 1.36499H9.75ZM8.25 7.71114C8.25 8.12535 8.58579 8.46114 9 8.46114C9.41421 8.46114 9.75 8.12535 9.75 7.71114H8.25ZM8.46967 8.24147C8.76256 8.53436 9.23744 8.53436 9.53033 8.24147C9.82322 7.94858 9.82322 7.4737 9.53033 7.18081L8.46967 8.24147ZM7.22264 4.87312C6.92975 4.58023 6.45487 4.58023 6.16198 4.87312C5.86909 5.16601 5.86909 5.64089 6.16198 5.93378L7.22264 4.87312ZM8.46967 7.18081C8.17678 7.4737 8.17678 7.94858 8.46967 8.24147C8.76256 8.53436 9.23744 8.53436 9.53033 8.24147L8.46967 7.18081ZM11.838 5.93378C12.1309 5.64089 12.1309 5.16601 11.838 4.87312C11.5451 4.58023 11.0703 4.58023 10.7774 4.87312L11.838 5.93378ZM6.69231 1.19191H5.08616V2.69191H6.69231V1.19191ZM5.08616 1.19191C3.99763 1.19191 3.03615 1.9019 2.71565 2.94236L4.14917 3.38394C4.27591 2.9725 4.65611 2.69191 5.08616 2.69191V1.19191ZM2.71558 2.94259L0.860096 8.97289L2.29376 9.41401L4.14924 3.38371L2.71558 2.94259ZM0.860267 8.97233C0.787417 9.20844 0.750268 9.45409 0.75001 9.70113L2.25001 9.70269C2.25011 9.60499 2.2648 9.50788 2.29359 9.41457L0.860267 8.97233ZM0.75001 9.70191V12.9035H2.25001V9.70191H0.75001ZM0.75001 12.9035C0.75001 14.2735 1.86069 15.3842 3.23078 15.3842V13.8842C2.68911 13.8842 2.25001 13.4451 2.25001 12.9035H0.75001ZM3.23078 15.3842H14.7692V13.8842H3.23078V15.3842ZM14.7692 15.3842C16.1393 15.3842 17.25 14.2735 17.25 12.9035H15.75C15.75 13.4451 15.3109 13.8842 14.7692 13.8842V15.3842ZM17.25 12.9035V9.70191H15.75V12.9035H17.25ZM17.25 9.70191C17.25 9.45382 17.2124 9.2078 17.1398 8.97241L15.7064 9.4145C15.7353 9.50832 15.75 9.60538 15.75 9.70191H17.25ZM17.14 8.97305L15.2861 2.94305L13.8524 3.38385L15.7062 9.41385L17.14 8.97305ZM15.286 2.94279C14.9657 1.90219 14.0043 1.19211 12.9155 1.19191L12.9153 2.69191C13.3457 2.69199 13.7258 2.97273 13.8524 3.38411L15.286 2.94279ZM12.9154 1.19191H11.3077V2.69191H12.9154V1.19191ZM1.5 10.1919H4.46923V8.69191H1.5V10.1919ZM4.46904 10.1919C4.84048 10.192 5.17999 10.4019 5.34606 10.7342L6.68778 10.0635C6.26771 9.22312 5.40894 8.69215 4.46942 8.69191L4.46904 10.1919ZM5.3461 10.7342L5.54302 11.1281L6.88466 10.4573L6.68774 10.0634L5.3461 10.7342ZM5.54298 11.128C5.96323 11.9687 6.82253 12.4998 7.76245 12.4996L7.76215 10.9996C7.39057 10.9997 7.05085 10.7897 6.8847 10.4573L5.54298 11.128ZM7.7623 12.4996H10.2377V10.9996H7.7623V12.4996ZM10.2377 12.4996C11.1778 12.4996 12.0371 11.9685 12.4572 11.1276L11.1154 10.4572C10.9493 10.7895 10.6097 10.9996 10.2377 10.9996V12.4996ZM12.4571 11.1278L12.6539 10.7343L11.3123 10.0634L11.1155 10.457L12.4571 11.1278ZM12.6539 10.7342C12.8201 10.4018 13.1598 10.1918 13.5314 10.1919L13.5317 8.69192C12.5917 8.69173 11.7325 9.22278 11.3122 10.0635L12.6539 10.7342ZM13.5315 10.1919H16.5V8.69192H13.5315V10.1919ZM8.25 1.36499V7.71114H9.75V1.36499H8.25ZM9.53033 7.18081L7.22264 4.87312L6.16198 5.93378L8.46967 8.24147L9.53033 7.18081ZM9.53033 8.24147L11.838 5.93378L10.7774 4.87312L8.46967 7.18081L9.53033 8.24147Z" fill="#3B41E3"/>
</svg>
