<svg width="36" height="36" viewBox="0 0 36 36" fill="none" xmlns="http://www.w3.org/2000/svg">
<g id="Group 24561">
<path id="Ellipse 1328" fill-rule="evenodd" clip-rule="evenodd" d="M18 36C27.9411 36 36 27.9411 36 18C36 8.05887 27.9411 0 18 0C8.05887 0 0 8.05887 0 18C0 27.9411 8.05887 36 18 36Z" fill="#EBEEF6"/>
<path id="Path 17123" fill-rule="evenodd" clip-rule="evenodd" d="M12 18.4681C12 19.4528 12.6911 20.3106 13.6659 20.454C14.3348 20.5524 15.0105 20.6281 15.6923 20.6811V23.5389L18.2006 21.0306C18.3707 20.8616 18.5991 20.7641 18.8388 20.758C20.0089 20.7256 21.1761 20.6241 22.3342 20.454C23.3089 20.3106 24 19.4534 24 18.4675V14.7642C24 13.7783 23.3089 12.9211 22.3342 12.7777C20.8991 12.5671 19.4505 12.4615 18 12.462C16.528 12.462 15.0806 12.5697 13.6659 12.7777C12.6911 12.9211 12 13.7789 12 14.7642V18.4675L12 18.4681Z" stroke="#74829C" stroke-linecap="round" stroke-linejoin="round"/>
</g>
</svg>
