<svg id="undraw_no_data_re_kwbl" xmlns="http://www.w3.org/2000/svg" width="239.186" height="233.474" viewBox="0 0 239.186 233.474">
  <path id="Path_12754" data-name="Path 12754" d="M452.715,204.206h-64.45a5.547,5.547,0,0,0-5.54,5.54V352.987l-.739.225-15.811,4.842a2.957,2.957,0,0,1-3.689-1.961L315.457,202.474a2.956,2.956,0,0,1,1.961-3.69l24.364-7.46,70.633-21.62,24.364-7.46a2.951,2.951,0,0,1,3.69,1.957l12.021,39.266Z" transform="translate(-300.87 -151.7)" fill="#f2f2f2"/>
  <path id="Path_12755" data-name="Path 12755" d="M442.091,185.685,427.6,138.36a6.276,6.276,0,0,0-7.841-4.166l-34.255,10.485L314.879,166.3l-34.255,10.489a6.284,6.284,0,0,0-4.166,7.841l49.519,161.737a6.288,6.288,0,0,0,6.005,4.443,6.2,6.2,0,0,0,1.835-.277l23.481-7.187.739-.229v-.772l-.739.225-23.7,7.257a5.545,5.545,0,0,1-6.917-3.675L277.167,184.414a5.532,5.532,0,0,1,3.675-6.917L315.1,167.008l70.629-21.62L419.98,134.9a5.534,5.534,0,0,1,6.917,3.675l14.422,47.111.229.739h.768Z" transform="translate(-276.183 -133.917)" fill="#3f3d56"/>
  <path id="Path_12756" data-name="Path 12756" d="M385.058,189.876a3.33,3.33,0,0,1-3.18-2.351l-4.757-15.538a3.323,3.323,0,0,1,2.205-4.151L444.3,147.943a3.327,3.327,0,0,1,4.151,2.205l4.757,15.538a3.328,3.328,0,0,1-2.205,4.151L386.029,189.73A3.314,3.314,0,0,1,385.058,189.876Z" transform="translate(-339.75 -142.671)" fill="#3b41e3"/>
  <circle id="Ellipse_1219" data-name="Ellipse 1219" cx="7.386" cy="7.386" r="7.386" transform="translate(62.841 1.829)" fill="#3b41e3"/>
  <circle id="Ellipse_1220" data-name="Ellipse 1220" cx="4.677" cy="4.677" r="4.677" transform="translate(65.55 4.538)" fill="#fff"/>
  <path id="Path_12757" data-name="Path 12757" d="M660.288,449.941H535.457a3.143,3.143,0,0,1-3.139-3.139V297.226a3.143,3.143,0,0,1,3.139-3.139H660.288a3.143,3.143,0,0,1,3.139,3.139V446.8A3.143,3.143,0,0,1,660.288,449.941Z" transform="translate(-437.722 -234.933)" fill="#e6e6e6"/>
  <path id="Path_12758" data-name="Path 12758" d="M579.839,274.087H502.1a6.287,6.287,0,0,0-6.279,6.279V430.975l.739-.225V280.365a5.547,5.547,0,0,1,5.54-5.54h77.971Zm67.77,0H502.1a6.287,6.287,0,0,0-6.279,6.279V449.515a6.287,6.287,0,0,0,6.279,6.278H647.609a6.287,6.287,0,0,0,6.279-6.278V280.366A6.287,6.287,0,0,0,647.609,274.087Zm5.54,175.428a5.547,5.547,0,0,1-5.54,5.54H502.1a5.547,5.547,0,0,1-5.54-5.54V280.366a5.547,5.547,0,0,1,5.54-5.54H647.609a5.547,5.547,0,0,1,5.54,5.54Z" transform="translate(-414.702 -222.319)" fill="#3f3d56"/>
  <path id="Path_12759" data-name="Path 12759" d="M680.1,278.985H612.142a3.328,3.328,0,0,1-3.324-3.324v-16.25a3.328,3.328,0,0,1,3.324-3.324H680.1a3.328,3.328,0,0,1,3.324,3.324v16.25A3.328,3.328,0,0,1,680.1,278.985Z" transform="translate(-485.969 -210.967)" fill="#3b41e3"/>
  <circle id="Ellipse_1221" data-name="Ellipse 1221" cx="7.386" cy="7.386" r="7.386" transform="translate(152.764 31.455)" fill="#3b41e3"/>
  <circle id="Ellipse_1222" data-name="Ellipse 1222" cx="4.499" cy="4.499" r="4.499" transform="translate(155.652 34.343)" fill="#fff"/>
</svg>
