<svg xmlns="http://www.w3.org/2000/svg" width="12" height="13.056" viewBox="0 0 12 13.056">
  <path id="Path_15988" data-name="Path 15988" d="M11.079,12.389a15.682,15.682,0,0,0,3.609-.873A6,6,0,0,1,13.159,7.5V7A3.971,3.971,0,1,0,5.218,7v.5a6,6,0,0,1-1.53,4.015,15.684,15.684,0,0,0,3.61.873m3.781,0a15.93,15.93,0,0,1-3.781,0m3.781,0a2.009,2.009,0,0,1-.726,2.23,1.973,1.973,0,0,1-2.329,0,2.009,2.009,0,0,1-.726-2.23" transform="translate(-3.188 -2.5)" fill="none" stroke="#74829c" stroke-linecap="round" stroke-linejoin="round" stroke-width="1"/>
</svg>
