<svg xmlns="http://www.w3.org/2000/svg" width="26" height="26" viewBox="0 0 26 26">
  <g id="Sahayya_Notification_bell_Icon" data-name="Sahayya Notification bell Icon" transform="translate(1 1)">
    <g id="Rectangle_5759" data-name="Rectangle 5759" fill="#fff" stroke="#fff" stroke-width="1" opacity="0">
      <rect width="24" height="24" rx="4" stroke="none"/>
      <rect x="-0.5" y="-0.5" width="25" height="25" rx="4.5" fill="none"/>
    </g>
    <path id="Path_15988" data-name="Path 15988" d="M11.079,12.389a15.682,15.682,0,0,0,3.609-.873A6,6,0,0,1,13.159,7.5V7A3.971,3.971,0,1,0,5.218,7v.5a6,6,0,0,1-1.53,4.015,15.684,15.684,0,0,0,3.61.873m3.781,0a15.93,15.93,0,0,1-3.781,0m3.781,0a2.009,2.009,0,0,1-.726,2.23,1.973,1.973,0,0,1-2.329,0,2.009,2.009,0,0,1-.726-2.23" transform="translate(2.77 3)" fill="none" stroke="#fff" stroke-linecap="round" stroke-linejoin="round" stroke-width="1"/>
  </g>
</svg>
