<svg width="24" height="24" viewBox="0 0 24 24" fill="none" xmlns="http://www.w3.org/2000/svg">
<g id="Sahayya Notification bell Icon">
<path id="Path 15988" d="M13.7897 14.893C13.5155 14.9257 13.3197 15.1745 13.3524 15.4487C13.3851 15.7229 13.6339 15.9187 13.9081 15.886L13.7897 14.893ZM17.458 14.516L17.6323 14.9846C17.7873 14.927 17.9038 14.7964 17.9434 14.6359C17.9831 14.4753 17.9408 14.3055 17.8304 14.1824L17.458 14.516ZM15.9287 10.5007L16.4287 10.5014V10.5007H15.9287ZM7.98794 10.5007H7.48794L7.48794 10.5014L7.98794 10.5007ZM6.45801 14.516L6.08566 14.1823C5.97529 14.3055 5.93295 14.4752 5.97257 14.6358C6.01219 14.7964 6.12864 14.9269 6.28363 14.9846L6.45801 14.516ZM10.0084 15.8859C10.2826 15.9187 10.5314 15.7231 10.5642 15.4489C10.597 15.1747 10.4013 14.9258 10.1272 14.893L10.0084 15.8859ZM14.2129 15.7323C14.4022 15.5313 14.3928 15.2149 14.1917 15.0255C13.9907 14.8362 13.6743 14.8456 13.485 15.0466L14.2129 15.7323ZM10.4317 15.0466C10.2424 14.8456 9.92593 14.8362 9.72492 15.0255C9.52391 15.2149 9.51446 15.5313 9.7038 15.7323L10.4317 15.0466ZM14.3254 15.238C14.2417 14.9748 13.9606 14.8293 13.6974 14.913C13.4343 14.9966 13.2887 15.2778 13.3724 15.541L14.3254 15.238ZM10.5443 15.541C10.6279 15.2778 10.4824 14.9966 10.2192 14.913C9.95607 14.8293 9.67492 14.9748 9.59126 15.238L10.5443 15.541ZM13.9081 15.886C15.1804 15.7342 16.4305 15.4316 17.6323 14.9846L17.2837 14.0474C16.156 14.4668 14.9833 14.7506 13.7897 14.893L13.9081 15.886ZM17.8304 14.1824C16.9267 13.1736 16.4267 11.8618 16.4287 10.5014L15.4287 10.5C15.4264 12.1061 16.0166 13.6564 17.0856 14.8497L17.8304 14.1824ZM16.4287 10.5007V10.034H15.4287V10.5007H16.4287ZM16.4287 10.034V10.0006H15.4287V10.034H16.4287ZM16.4287 10.0006C16.4287 7.51858 14.4308 5.5 11.9583 5.5V6.5C13.8714 6.5 15.4287 8.0637 15.4287 10.0006H16.4287ZM11.9583 5.5C9.48584 5.5 7.48794 7.51858 7.48794 10.0006H8.48794C8.48794 8.0637 10.0453 6.5 11.9583 6.5V5.5ZM7.48794 10.0006V10.5007H8.48794V10.0006H7.48794ZM7.48794 10.5014C7.48977 11.8618 6.98964 13.1737 6.08566 14.1823L6.83035 14.8497C7.89966 13.6566 8.4901 12.1063 8.48794 10.5L7.48794 10.5014ZM6.28363 14.9846C7.46714 15.425 8.71471 15.7312 10.0084 15.8859L10.1272 14.893C8.91285 14.7477 7.74244 14.4605 6.63238 14.0474L6.28363 14.9846ZM13.485 15.0466C12.9087 15.6584 12.3999 15.8895 11.9583 15.8895C11.5167 15.8895 11.0079 15.6584 10.4317 15.0466L9.7038 15.7323C10.3835 16.4539 11.1374 16.8895 11.9583 16.8895C12.7793 16.8895 13.5331 16.4539 14.2129 15.7323L13.485 15.0466ZM13.3724 15.541C13.5694 16.1606 13.3483 16.8361 12.8282 17.2158L13.4178 18.0235C14.2873 17.3887 14.6519 16.2651 14.3254 15.238L13.3724 15.541ZM12.8282 17.2158C12.309 17.5948 11.6077 17.5948 11.0885 17.2158L10.4989 18.0235C11.3694 18.6589 12.5473 18.6589 13.4178 18.0235L12.8282 17.2158ZM11.0885 17.2158C10.5683 16.8361 10.3473 16.1606 10.5443 15.541L9.59126 15.238C9.26475 16.2651 9.62934 17.3887 10.4989 18.0235L11.0885 17.2158Z" fill="#74829C"/>
<path id="Ellipse 1254" fill-rule="evenodd" clip-rule="evenodd" d="M16 11C17.6569 11 19 9.65685 19 8C19 6.34315 17.6569 5 16 5C14.3431 5 13 6.34315 13 8C13 9.65685 14.3431 11 16 11Z" fill="#0517B9"/>
</g>
</svg>
