<svg width="25" height="24" viewBox="0 0 25 24" fill="none" xmlns="http://www.w3.org/2000/svg">
<g id="Group 22004">
<path id="Ellipse 1272" fill-rule="evenodd" clip-rule="evenodd" d="M12.5 24C19.1274 24 24.5 18.6274 24.5 12C24.5 5.37258 19.1274 0 12.5 0C5.87258 0 0.5 5.37258 0.5 12C0.5 18.6274 5.87258 24 12.5 24Z" fill="white"/>
<g id="Group 24647">
<g id="Group 24649">
<path id="Path 17268" d="M6.81074 12.3563C6.51771 12.6491 6.51748 13.124 6.81024 13.417C7.10299 13.71 7.57787 13.7102 7.8709 13.4175L6.81074 12.3563ZM10.1194 10.111L10.6495 10.6415L10.6497 10.6413L10.1194 10.111ZM11.8322 10.111L11.3019 10.6413L11.302 10.6414L11.8322 10.111ZM14.0793 13.4174C14.3722 13.7102 14.8471 13.7101 15.1399 13.4171C15.4328 13.1241 15.4327 12.6493 15.1397 12.3564L14.0793 13.4174ZM13.2724 11.5495C12.9795 11.8424 12.9795 12.3172 13.2724 12.6101C13.5653 12.903 14.0402 12.903 14.3331 12.6101L13.2724 11.5495ZM14.5614 11.3212L14.031 10.7908L14.5614 11.3212ZM16.2742 11.3212L15.7439 11.8515L15.7441 11.8517L16.2742 11.3212ZM17.3112 13.4175C17.6042 13.7103 18.0791 13.7101 18.3719 13.4171C18.6646 13.1241 18.6644 12.6492 18.3714 12.3564L17.3112 13.4175ZM17.0909 12.8869C17.0909 13.3011 17.4267 13.6369 17.8409 13.6369C18.2551 13.6369 18.5909 13.3011 18.5909 12.8869H17.0909ZM6.59082 12.8869C6.59082 13.3011 6.92661 13.6369 7.34082 13.6369C7.75503 13.6369 8.09082 13.3011 8.09082 12.8869H6.59082ZM7.8709 13.4175L10.6495 10.6415L9.58932 9.58037L6.81074 12.3563L7.8709 13.4175ZM10.6497 10.6413C10.8293 10.4617 11.1223 10.4617 11.3019 10.6413L12.3626 9.58063C11.5972 8.81523 10.3545 8.81523 9.58907 9.58063L10.6497 10.6413ZM11.302 10.6414L14.0793 13.4174L15.1397 12.3564L12.3624 9.5805L11.302 10.6414ZM14.3331 12.6101L15.0917 11.8515L14.031 10.7908L13.2724 11.5495L14.3331 12.6101ZM15.0917 11.8515C15.2713 11.6719 15.5642 11.6719 15.7439 11.8515L16.8045 10.7908C16.0391 10.0254 14.7964 10.0254 14.031 10.7908L15.0917 11.8515ZM15.7441 11.8517L17.3112 13.4175L18.3714 12.3564L16.8043 10.7906L15.7441 11.8517ZM18.5909 12.8869V7.00031H17.0909V12.8869H18.5909ZM18.5909 7.00031C18.5909 6.13984 17.8942 5.44312 17.0337 5.44312V6.94312C17.0657 6.94312 17.0909 6.96827 17.0909 7.00031H18.5909ZM17.0337 5.44312H8.14801V6.94312H17.0337V5.44312ZM8.14801 5.44312C7.28755 5.44312 6.59082 6.13984 6.59082 7.00031H8.09082C8.09082 6.96827 8.11597 6.94312 8.14801 6.94312V5.44312ZM6.59082 7.00031V12.8869H8.09082V7.00031H6.59082ZM13.8506 9.14624C13.8506 9.00802 13.9623 8.89624 14.1006 8.89624V10.3962C14.7908 10.3962 15.3506 9.83638 15.3506 9.14624H13.8506ZM14.1006 8.89624C14.2388 8.89624 14.3506 9.00797 14.3506 9.14624H12.8506C12.8506 9.83648 13.4105 10.3962 14.1006 10.3962V8.89624ZM14.3506 9.14624C14.3506 9.28449 14.2388 9.39624 14.1006 9.39624V7.89624C13.4104 7.89624 12.8506 8.45607 12.8506 9.14624H14.3506ZM14.1006 9.39624C13.9623 9.39624 13.8506 9.28446 13.8506 9.14624H15.3506C15.3506 8.45605 14.7908 7.89624 14.1006 7.89624V9.39624Z" fill="#3B41E3"/>
<path id="Path 17269" d="M5.90918 14.812H19.2731" stroke="#3B41E3" stroke-width="1.5" stroke-linecap="round" stroke-linejoin="round"/>
<path id="Path 17270" d="M7.34082 16.541V16.7838C7.33951 17.2288 7.70045 17.591 8.1467 17.5923H8.14801H17.0337C17.4799 17.5923 17.8409 17.2301 17.8409 16.7852V16.541" stroke="#3B41E3" stroke-width="1.5" stroke-linecap="round" stroke-linejoin="round"/>
</g>
</g>
</g>
</svg>
