<svg width="25" height="24" viewBox="0 0 25 24" fill="none" xmlns="http://www.w3.org/2000/svg">
<g id="Group 22004">
<path id="Ellipse 1272" fill-rule="evenodd" clip-rule="evenodd" d="M12.5 23.9995C19.1274 23.9995 24.5 18.6269 24.5 11.9995C24.5 5.37209 19.1274 -0.000488281 12.5 -0.000488281C5.87258 -0.000488281 0.5 5.37209 0.5 11.9995C0.5 18.6269 5.87258 23.9995 12.5 23.9995Z" fill="white"/>
<g id="Group 24647">
<g id="Group 24649">
<path id="Path 17268" d="M6.81074 12.3558C6.51771 12.6486 6.51748 13.1235 6.81024 13.4165C7.10299 13.7095 7.57787 13.7098 7.8709 13.417L6.81074 12.3558ZM10.1194 10.1105L10.6495 10.6411L10.6497 10.6408L10.1194 10.1105ZM11.8322 10.1105L11.3019 10.6408L11.302 10.6409L11.8322 10.1105ZM14.0793 13.4169C14.3722 13.7097 14.8471 13.7096 15.1399 13.4166C15.4328 13.1237 15.4327 12.6488 15.1397 12.356L14.0793 13.4169ZM13.2724 11.549C12.9795 11.8419 12.9795 12.3168 13.2724 12.6096C13.5653 12.9025 14.0402 12.9025 14.3331 12.6096L13.2724 11.549ZM14.5614 11.3207L14.031 10.7904L14.5614 11.3207ZM16.2742 11.3207L15.7439 11.851L15.7441 11.8512L16.2742 11.3207ZM17.3112 13.4171C17.6042 13.7098 18.0791 13.7096 18.3719 13.4166C18.6646 13.1236 18.6644 12.6487 18.3714 12.356L17.3112 13.4171ZM17.0909 12.8864C17.0909 13.3006 17.4267 13.6364 17.8409 13.6364C18.2551 13.6364 18.5909 13.3006 18.5909 12.8864H17.0909ZM6.59082 12.8864C6.59082 13.3006 6.92661 13.6364 7.34082 13.6364C7.75503 13.6364 8.09082 13.3006 8.09082 12.8864H6.59082ZM7.8709 13.417L10.6495 10.6411L9.58932 9.5799L6.81074 12.3558L7.8709 13.417ZM10.6497 10.6408C10.8293 10.4612 11.1223 10.4612 11.3019 10.6408L12.3626 9.58015C11.5972 8.81476 10.3545 8.81476 9.58907 9.58015L10.6497 10.6408ZM11.302 10.6409L14.0793 13.4169L15.1397 12.356L12.3624 9.58002L11.302 10.6409ZM14.3331 12.6096L15.0917 11.851L14.031 10.7904L13.2724 11.549L14.3331 12.6096ZM15.0917 11.851C15.2713 11.6714 15.5642 11.6714 15.7439 11.851L16.8045 10.7904C16.0391 10.025 14.7964 10.025 14.031 10.7904L15.0917 11.851ZM15.7441 11.8512L17.3112 13.4171L18.3714 12.356L16.8043 10.7901L15.7441 11.8512ZM18.5909 12.8864V6.99982H17.0909V12.8864H18.5909ZM18.5909 6.99982C18.5909 6.13935 17.8942 5.44263 17.0337 5.44263V6.94263C17.0657 6.94263 17.0909 6.96778 17.0909 6.99982H18.5909ZM17.0337 5.44263H8.14801V6.94263H17.0337V5.44263ZM8.14801 5.44263C7.28755 5.44263 6.59082 6.13935 6.59082 6.99982H8.09082C8.09082 6.96778 8.11597 6.94263 8.14801 6.94263V5.44263ZM6.59082 6.99982V12.8864H8.09082V6.99982H6.59082ZM13.8506 9.14575C13.8506 9.00753 13.9623 8.89575 14.1006 8.89575V10.3958C14.7908 10.3958 15.3506 9.8359 15.3506 9.14575H13.8506ZM14.1006 8.89575C14.2388 8.89575 14.3506 9.00748 14.3506 9.14575H12.8506C12.8506 9.83599 13.4105 10.3958 14.1006 10.3958V8.89575ZM14.3506 9.14575C14.3506 9.284 14.2388 9.39575 14.1006 9.39575V7.89575C13.4104 7.89575 12.8506 8.45558 12.8506 9.14575H14.3506ZM14.1006 9.39575C13.9623 9.39575 13.8506 9.28397 13.8506 9.14575H15.3506C15.3506 8.45556 14.7908 7.89575 14.1006 7.89575V9.39575Z" fill="#B0B7CF"/>
<path id="Path 17269" d="M5.90918 14.8115H19.2731" stroke="#B0B7CF" stroke-width="1.5" stroke-linecap="round" stroke-linejoin="round"/>
<path id="Path 17270" d="M7.34082 16.5405V16.7833C7.33951 17.2283 7.70045 17.5905 8.1467 17.5919H8.14801H17.0337C17.4799 17.5919 17.8409 17.2296 17.8409 16.7847V16.5405" stroke="#B0B7CF" stroke-width="1.5" stroke-linecap="round" stroke-linejoin="round"/>
</g>
</g>
</g>
</svg>
