<svg xmlns="http://www.w3.org/2000/svg" width="13.001" height="12" viewBox="0 0 13.001 12">
  <path id="Path_16003" data-name="Path 16003" d="M10.1,12.856a5.831,5.831,0,0,0,4.151-.354A2.522,2.522,0,0,0,12.508,10a2.548,2.548,0,0,0-2.9.976m.484,1.878v0a3.858,3.858,0,0,0-.484-1.876m.484,1.878v.065a7.669,7.669,0,0,1-7.846,0v-.067a3.927,3.927,0,0,1,7.362-1.876M8.249,5.062A2.077,2.077,0,1,1,6.173,3,2.07,2.07,0,0,1,8.249,5.062Zm5.077,1.375a1.615,1.615,0,1,1-1.615-1.6A1.61,1.61,0,0,1,13.326,6.437Z" transform="translate(-1.749 -2.5)" fill="none" stroke="#abb4c3" stroke-linecap="round" stroke-linejoin="round" stroke-width="1"/>
</svg>
