<svg width="12" height="12" viewBox="0 0 12 12" fill="none" xmlns="http://www.w3.org/2000/svg">
<g id="Group 24543">
<path id="Ellipse 1311" fill-rule="evenodd" clip-rule="evenodd" d="M6 12C9.31371 12 12 9.31371 12 6C12 2.68629 9.31371 0 6 0C2.68629 0 0 2.68629 0 6C0 9.31371 2.68629 12 6 12Z" fill="white"/>
<path id="Path 17114" d="M6.50049 2C6.50049 1.72386 6.27663 1.5 6.00049 1.5C5.72435 1.5 5.50049 1.72386 5.50049 2H6.50049ZM5.50049 10C5.50049 10.2761 5.72435 10.5 6.00049 10.5C6.27663 10.5 6.50049 10.2761 6.50049 10H5.50049ZM10.0005 6.5C10.2766 6.5 10.5005 6.27614 10.5005 6C10.5005 5.72386 10.2766 5.5 10.0005 5.5V6.5ZM2.00049 5.5C1.72435 5.5 1.50049 5.72386 1.50049 6C1.50049 6.27614 1.72435 6.5 2.00049 6.5V5.5ZM5.50049 2V10H6.50049V2H5.50049ZM10.0005 5.5H2.00049V6.5H10.0005V5.5Z" fill="#3B41E3"/>
</g>
</svg>
