<svg xmlns="http://www.w3.org/2000/svg" width="21.5" height="19.5" viewBox="0 0 21.5 19.5">
  <path id="Path_16034" data-name="Path 16034" d="M7.635,15H9.942m8.23-9.75a.626.626,0,0,0,.053.148,8.817,8.817,0,0,1-.077,8.1m.024-8.25a.616.616,0,0,1,.59-.75h.931a2.064,2.064,0,0,1,2.023,1.368,11.774,11.774,0,0,1-.318,7.9A2.078,2.078,0,0,1,19.429,15h-1.08a.628.628,0,0,1-.513-.96q.165-.265.311-.54m.024-8.25H16.845a4.723,4.723,0,0,1-1.459-.23L12.192,3.98a4.723,4.723,0,0,0-1.459-.23H6.613a2.115,2.115,0,0,0-1.646.729A11.782,11.782,0,0,0,2.32,13.285,2.034,2.034,0,0,0,4.426,15H7.633a.887.887,0,0,1,.744,1.282A7.316,7.316,0,0,0,7.635,19.5a2.279,2.279,0,0,0,2.308,2.25.76.76,0,0,0,.769-.75v-.633a4.417,4.417,0,0,1,.33-1.672,3.512,3.512,0,0,1,1.7-1.715,9.219,9.219,0,0,0,2.933-2.4,2.726,2.726,0,0,1,2.084-1.08h.394" transform="translate(-1.5 -3)" fill="none" stroke="#b0b7cf" stroke-linecap="round" stroke-linejoin="round" stroke-width="1.5"/>
</svg>
