<svg width="16" height="15" viewBox="0 0 16 15" fill="none" xmlns="http://www.w3.org/2000/svg">
<g id="noun-reply-1459596">
<g id="Group">
<path id="Compound Path" fill-rule="evenodd" clip-rule="evenodd" d="M12.435 5.79926C12.2217 5.58594 10.7017 4.30599 7.55518 4.19932V1.13277C7.55218 0.9194 7.42229 0.72836 7.22498 0.64712C7.02767 0.56587 6.80092 0.61006 6.64855 0.75945L0.595446 6.73255C0.392176 6.93992 0.392176 7.27181 0.595446 7.47919L6.62188 13.5323C6.77425 13.6817 7.001 13.7259 7.19831 13.6446C7.39562 13.5634 7.52551 13.3723 7.52851 13.159V9.98577C8.86179 9.90577 11.7417 10.1991 14.0083 13.9856L14.3549 14.5989C14.4486 14.7613 14.6207 14.8626 14.8082 14.8656H14.9416C15.1583 14.8252 15.3278 14.6557 15.3682 14.4389L15.5015 13.7456C15.5015 13.6923 16.3548 9.05247 12.435 5.79926ZM14.5149 12.7856C12.2483 9.45245 9.50177 8.89247 7.90183 8.89247C7.57136 8.89297 7.24144 8.91972 6.9152 8.97247C6.65226 9.01235 6.45888 9.23985 6.46188 9.50578V11.879L1.7154 7.10587L6.48855 2.41272V4.73263C6.48855 5.02717 6.72732 5.26594 7.02186 5.26594H7.10186C10.2484 5.26594 11.6883 6.57256 11.715 6.59922H11.7417C13.5647 8.11633 14.5876 10.3884 14.5149 12.759L14.5149 12.7856Z" fill="#74829C"/>
</g>
</g>
</svg>
