<svg width="52" height="52" viewBox="0 0 52 52" fill="none" xmlns="http://www.w3.org/2000/svg">
<g id="Sahayya Primary button">
<g id="Group 21186">
<g id="Ellipse 1253" filter="url(#filter0_d_189_205)">
<path fill-rule="evenodd" clip-rule="evenodd" d="M24 48C37.2548 48 48 37.2548 48 24C48 10.7452 37.2548 0 24 0C10.7452 0 0 10.7452 0 24C0 37.2548 10.7452 48 24 48Z" fill="#3B41E3"/>
</g>
</g>
<path id="Path 17115" d="M18.731 23.999L18.7362 24.499C18.8939 24.4973 19.0417 24.4213 19.1347 24.2939C19.2278 24.1666 19.2553 24.0027 19.2089 23.8519L18.731 23.999ZM16 15.125L16.1396 14.6449C15.9631 14.5936 15.7727 14.6432 15.6437 14.7742C15.5147 14.9052 15.4681 15.0964 15.5221 15.2721L16 15.125ZM34.216 23.999L34.508 24.4048C34.6386 24.3109 34.716 24.1598 34.716 23.999C34.716 23.8381 34.6386 23.6871 34.508 23.5931L34.216 23.999ZM16.001 32.875L15.5231 32.7281C15.4691 32.9038 15.5158 33.0949 15.6448 33.2259C15.7738 33.3568 15.9642 33.4065 16.1407 33.3551L16.001 32.875ZM18.73 23.999L18.7248 23.499C18.5072 23.5013 18.316 23.6441 18.2521 23.8521L18.73 23.999ZM18.731 23.499C18.4549 23.499 18.231 23.7229 18.231 23.999C18.231 24.2751 18.4549 24.499 18.731 24.499V23.499ZM26.231 24.499C26.5071 24.499 26.731 24.2751 26.731 23.999C26.731 23.7229 26.5071 23.499 26.231 23.499V24.499ZM19.2089 23.8519L16.4779 14.9779L15.5221 15.2721L18.2531 24.1461L19.2089 23.8519ZM15.8604 15.6051C22.3385 17.4889 28.4475 20.4649 33.924 24.4049L34.508 23.5931C28.9391 19.5867 22.7271 16.5604 16.1396 14.6449L15.8604 15.6051ZM33.924 23.5932C28.4479 27.5337 22.3393 30.5104 15.8613 32.3949L16.1407 33.3551C22.7279 31.4388 28.9396 28.4119 34.508 24.4048L33.924 23.5932ZM16.4789 33.0219L19.2079 24.146L18.2521 23.8521L15.5231 32.7281L16.4789 33.0219ZM18.7352 24.499L18.7362 24.499L18.7258 23.499L18.7248 23.499L18.7352 24.499ZM18.731 24.499H26.231V23.499H18.731V24.499Z" fill="white"/>
</g>
<defs>
<filter id="filter0_d_189_205" x="0" y="0" width="52" height="52" filterUnits="userSpaceOnUse" color-interpolation-filters="sRGB">
<feFlood flood-opacity="0" result="BackgroundImageFix"/>
<feColorMatrix in="SourceAlpha" type="matrix" values="0 0 0 0 0 0 0 0 0 0 0 0 0 0 0 0 0 0 127 0" result="hardAlpha"/>
<feOffset dx="2" dy="2"/>
<feGaussianBlur stdDeviation="1"/>
<feColorMatrix type="matrix" values="0 0 0 0 0.207843 0 0 0 0 0.243137 0 0 0 0 0.341176 0 0 0 0.239216 0"/>
<feBlend mode="normal" in2="BackgroundImageFix" result="effect1_dropShadow_189_205"/>
<feBlend mode="normal" in="SourceGraphic" in2="effect1_dropShadow_189_205" result="shape"/>
</filter>
</defs>
</svg>
