<svg xmlns="http://www.w3.org/2000/svg" width="28" height="28" viewBox="0 0 28 28">
  <g id="Group_24253" data-name="Group 24253" transform="translate(0 0.155)">
    <circle id="Ellipse_1327" data-name="Ellipse 1327" cx="14" cy="14" r="14" transform="translate(0 -0.155)" fill="#343e57"/>
    <g id="Group_24252" data-name="Group 24252" transform="translate(6.701 4.425)">
      <path id="Path_17110" data-name="Path 17110" d="M913.7,1525.81h5.4a2.706,2.706,0,0,0,2.7-2.7v-5.4a2.706,2.706,0,0,0-2.7-2.7h-5.4a2.706,2.706,0,0,0-2.7,2.7v5.4A2.706,2.706,0,0,0,913.7,1525.81Zm-1.351-8.107a1.353,1.353,0,0,1,1.351-1.351h5.4a1.353,1.353,0,0,1,1.351,1.351v5.4a1.353,1.353,0,0,1-1.351,1.351h-5.4a1.353,1.353,0,0,1-1.351-1.351Z" transform="translate(-911 -1508.919)" fill="#fff"/>
      <path id="Path_17111" data-name="Path 17111" d="M2125.054,527h-1.748l.874-.873a.676.676,0,1,0-.955-.956L2121.2,527.2a.677.677,0,0,0,0,.956l2.027,2.029a.676.676,0,0,0,.957-.956l-.873-.873h1.746a2.029,2.029,0,0,1,2.027,2.027v3.378a.676.676,0,0,0,1.352,0V530.38A3.382,3.382,0,0,0,2125.054,527Z" transform="translate(-2113.568 -524.975)" fill="#fff"/>
    </g>
  </g>
</svg>
