<svg xmlns="http://www.w3.org/2000/svg" width="166" height="16" viewBox="0 0 166 16">
  <g id="Logo-SAHAYYA_SVG" data-name="Logo-SAHAYYA SVG" transform="translate(-76.7 -686.402)">
    <path id="Path_12135" data-name="Path 12135" d="M463.665,689.093c-.877,1.572-2.088,3.76-2.681,4.855a9.012,9.012,0,0,1-1.174,1.886c-.049-.05-.716-1.22-1.47-2.59l-1.384-2.478H454.4l2.088,3.924,2.088,3.924v3.723h2.594V698.55l2.014-3.823c1.1-2.1,2.026-3.823,2.063-3.836s1,1.748,2.137,3.874l2.063,3.873v3.7h2.594v-3.811l1.556-2.968c.865-1.635,1.779-3.383,2.051-3.886l.494-.906h-2.557l-1.334,2.415c-.729,1.333-1.371,2.5-1.433,2.6-.1.151-1.8-2.792-4.521-7.785-.4-.73-.791-1.421-.877-1.547C465.3,686.251,465.085,686.565,463.665,689.093Z" transform="translate(-331.154 0)" fill="#fff"/>
    <path id="Path_12136" data-name="Path 12136" d="M80.282,720.608c-1.841.482-2.829,1.556-2.841,3.113a2.279,2.279,0,0,0,.642,1.927,5.573,5.573,0,0,0,2.866,1.458c2.1.63,2.545.939,2.458,1.754-.062.667-.544.914-1.742.9a5.246,5.246,0,0,1-3.162-1.038c-.42-.272-.778-.494-.791-.494a7.5,7.5,0,0,0-.519,1l-.494.988.309.247a10.6,10.6,0,0,0,2.841,1.3,8.724,8.724,0,0,0,1.915.21,4.481,4.481,0,0,0,3.471-1.2,2.66,2.66,0,0,0,.914-2.3c-.012-1.655-1.038-2.606-3.644-3.335-1.3-.358-2.075-.766-2.261-1.174-.21-.469-.185-.655.161-.988.581-.593,2.446-.358,4.138.494l.581.3.457-.951a7.281,7.281,0,0,0,.445-1.1,4.765,4.765,0,0,0-1.976-.964A10.269,10.269,0,0,0,80.282,720.608Z" transform="translate(0 -29.6)" fill="#fff"/>
    <path id="Path_12137" data-name="Path 12137" d="M985.932,720.648a3.2,3.2,0,0,0-2.656,2.94,2.237,2.237,0,0,0,.284,1.47c.445.926,1.062,1.322,3.125,1.989,1.939.63,2.458.9,2.569,1.359.235.914-.506,1.458-1.865,1.371a6.1,6.1,0,0,1-3.026-1.087c-1.05-.679-.778-.482-.8-.457a8.6,8.6,0,0,0-.877,2.014,3.033,3.033,0,0,0,.865.618,7.294,7.294,0,0,0,6.5.605,2.828,2.828,0,0,0,1.915-2.891c0-1.433-.729-2.557-3.792-3.508a5.312,5.312,0,0,1-1.816-.8c-.494-.469-.519-1-.062-1.359.642-.506,2.569-.247,4.138.556l.568.284.47-1.05a5.57,5.57,0,0,0,.42-1.087,9.52,9.52,0,0,0-1.964-.865,9.087,9.087,0,0,0-3.99-.1Z" transform="translate(-794.311 -29.579)" fill="#fff"/>
    <path id="Path_12138" data-name="Path 12138" d="M162.068,721.5c-.1.222-1.112,2.545-2.248,5.163s-2.174,4.991-2.3,5.275l-.222.531h2.644l.432-1.112.432-1.112h5.336l.42,1.075L167,732.4l1.371.037,1.371.037-2.421-5.695-2.434-5.682h-2.656Zm2.31,4.422c.445,1.112.815,2.1.815,2.186,0,.124-.408.161-1.729.161s-1.729-.049-1.729-.124c0-.123,1.556-4,1.692-4.237.037-.062.074-.086.1-.062S163.933,724.794,164.378,725.918Z" transform="translate(-70.644 -30.129)" fill="#fff"/>
    <path id="Path_12139" data-name="Path 12139" d="M268.2,726.782v5.682h2.471l.025-2.236.037-2.224,2.569-.025,2.557-.025v4.509h2.594V721.1h-2.594v4.694h-5.188V721.1H268.2Z" transform="translate(-167.844 -30.129)" fill="#fff"/>
    <path id="Path_12140" data-name="Path 12140" d="M366.044,721.5c-.087.222-1.124,2.606-2.285,5.287s-2.2,5.065-2.3,5.287l-.161.408,1.309-.037,1.322-.037.432-1.087.42-1.075h5.336l.432,1.087.432,1.075,1.334.037a5.089,5.089,0,0,0,1.322-.062c0-.049-1.075-2.619-2.372-5.682l-2.384-5.6h-2.668Zm3.15,6.6c0,.136-.358.173-1.729.173s-1.729-.037-1.729-.161,1.507-3.9,1.68-4.188A27.515,27.515,0,0,1,369.194,728.092Z" transform="translate(-249.522 -30.129)" fill="#fff"/>
    <path id="Path_12141" data-name="Path 12141" d="M628.316,721.37c-.049.086-4.484,10.228-4.855,11.105-.049.124.222.148,1.26.124l1.322-.037.432-1.087.432-1.075,2.668.025,2.668.037.432,1.075.42,1.087h1.347c1.235,0,1.346-.025,1.285-.222-.037-.111-1.124-2.656-2.4-5.645L631,721.32l-1.309-.037A4.688,4.688,0,0,0,628.316,721.37Zm2.2,4.793c.445,1.1.815,2.051.815,2.125a12.706,12.706,0,0,1-3.5.037,28.3,28.3,0,0,1,1.791-4.249C629.662,724.124,630.07,725.063,630.515,726.163Z" transform="translate(-479.366 -30.288)" fill="#fff"/>
    <path id="Path_12142" data-name="Path 12142" d="M765.3,726.782v5.682h2.594v-4.324h5.065v-2.1h-5.065V723.2h5.559v-2.1H765.3Z" transform="translate(-603.723 -30.129)" fill="#fff"/>
    <path id="Path_12143" data-name="Path 12143" d="M844.3,726.782v5.682h2.471V721.1H844.3Z" transform="translate(-672.978 -30.129)" fill="#fff"/>
    <path id="Path_12144" data-name="Path 12144" d="M885.3,726.782v5.682h2.471l.025-3.607.037-3.595,2.718,3.595,2.718,3.607h2.285V721.1h-2.347v7.35l-.247-.309c-.136-.173-1.384-1.828-2.792-3.681l-2.532-3.36H885.3Z" transform="translate(-708.935 -30.129)" fill="#fff"/>
    <path id="Path_12145" data-name="Path 12145" d="M1073.3,726.782v5.682h8.77v-2.1l-3.113-.025-3.125-.037v-2.471l2.755-.037,2.742-.025v-2.1h-5.559V723.2h6.176v-2.1H1073.3Z" transform="translate(-873.76 -30.129)" fill="#fff"/>
    <path id="Path_12146" data-name="Path 12146" d="M1161.3,726.682v5.695h2.594v-3.212h2.656l.865,1.606.865,1.606h2.891l-1.1-1.729c-.618-.939-1.149-1.8-1.186-1.9s.062-.247.3-.371a3.808,3.808,0,0,0,1.47-1.853,5.289,5.289,0,0,0-.074-3.249,3.729,3.729,0,0,0-2.063-1.9c-.692-.272-.915-.3-3.966-.334L1161.3,721Zm6.139-3.323a1.682,1.682,0,0,1,1.025,1.668,1.759,1.759,0,0,1-.828,1.63c-.272.173-.679.235-2.038.284l-1.7.062v-3.891h1.519A4.415,4.415,0,0,1,1167.439,723.359Z" transform="translate(-950.965 -30.041)" fill="#fff"/>
    <path id="Path_12147" data-name="Path 12147" d="M1246.477,721.261c.025.1,1.013,2.656,2.2,5.695l2.162,5.509,1.334-.025,1.334-.037,2.137-5.374c1.174-2.953,2.174-5.5,2.223-5.658q.087-.272-1.2-.272h-1.285l-1.519,4.163c-.828,2.3-1.544,4.212-1.594,4.262s-.766-1.828-1.606-4.163l-1.532-4.262h-1.346c-1.075,0-1.347.037-1.309.161Z" transform="translate(-1025.617 -30.129)" fill="#fff"/>
    <path id="Path_12148" data-name="Path 12148" d="M1352.3,726.782v5.682h8.771v-2.1l-3.113-.025-3.125-.037v-2.471l2.755-.037,2.742-.025v-2.1h-5.559V723.2h6.176v-2.1H1352.3Z" transform="translate(-1118.371 -30.129)" fill="#fff"/>
  </g>
</svg>
