<svg xmlns="http://www.w3.org/2000/svg" xmlns:xlink="http://www.w3.org/1999/xlink" width="19.948" height="13.586" viewBox="0 0 19.948 13.586">
  <defs>
    <clipPath id="clip-path">
      <rect id="Rectangle_6685" data-name="Rectangle 6685" width="17.14" height="13.586" fill="none" stroke="#fff" stroke-width="1"/>
    </clipPath>
  </defs>
  <g id="Group_24108" data-name="Group 24108" transform="translate(-351.217 -222.207)">
    <g id="Group_24108-2" data-name="Group 24108" transform="translate(351.217 222.207)">
      <g id="Group_24100" data-name="Group 24100" transform="translate(0 0)" clip-path="url(#clip-path)">
        <path id="Path_17062" data-name="Path 17062" d="M82.52.989V4.124H77.2V.989m8.933,8.485v2.347a1.71,1.71,0,0,1-1.71,1.707H75.3a1.71,1.71,0,0,1-1.707-1.707V2.695A1.71,1.71,0,0,1,75.3.989h1.9m5.319,0h1.9c.017-.031,1.714,1.724,1.71,1.71V5.291M82.52.989H77.2" transform="translate(-73.069 -0.418)" fill="none" stroke="#fff" stroke-linecap="round" stroke-linejoin="round" stroke-width="1.5"/>
      </g>
    </g>
    <path id="Path_17069" data-name="Path 17069" d="M90.744,5.9,93.755,8.91m0,0-3.011,3.011M93.755,8.91H82.813" transform="translate(276.35 220.3)" fill="none" stroke="#fff" stroke-linecap="round" stroke-linejoin="round" stroke-width="1.5"/>
  </g>
</svg>
