<svg xmlns="http://www.w3.org/2000/svg" xmlns:xlink="http://www.w3.org/1999/xlink" width="54" height="54" viewBox="0 0 54 54">
  <defs>
    <filter id="Ellipse_1274" x="0" y="0" width="54" height="54" filterUnits="userSpaceOnUse">
      <feOffset dx="2" dy="2" input="SourceAlpha"/>
      <feGaussianBlur stdDeviation="1" result="blur"/>
      <feFlood flood-color="#353e57" flood-opacity="0.239"/>
      <feComposite operator="in" in2="blur"/>
      <feComposite in="SourceGraphic"/>
    </filter>
  </defs>
  <g id="Group_24515" data-name="Group 24515" transform="translate(1 1)">
    <g transform="matrix(1, 0, 0, 1, -1, -1)" filter="url(#Ellipse_1274)">
      <g id="Ellipse_1274-2" data-name="Ellipse 1274" transform="translate(1 1)" fill="#3b41e3" stroke="#3b41e3" stroke-width="1.5">
        <circle cx="24" cy="24" r="24" stroke="none"/>
        <circle cx="24" cy="24" r="23.25" fill="none"/>
      </g>
    </g>
    <g id="Group_23441" data-name="Group 23441" transform="translate(6768.467 2960.592)">
      <path id="Path_16952" data-name="Path 16952" d="M16.568,3.75V9.03H8.932V3.75m7.636,0H19.3c.025-.044,2.46,2.474,2.455,2.455V19.3A2.455,2.455,0,0,1,19.3,21.75H6.2A2.455,2.455,0,0,1,3.75,19.3V6.2A2.455,2.455,0,0,1,6.2,3.75H8.932m7.636,0H8.932" transform="translate(-6757.25 -2950)" fill="none" stroke="#fff" stroke-linecap="round" stroke-linejoin="round" stroke-width="1.5"/>
      <path id="Path_16960" data-name="Path 16960" d="M-6749.331-2929.925v-4h12v4" transform="translate(-1.17 1)" fill="none" stroke="#fff" stroke-linecap="round" stroke-linejoin="round" stroke-width="1.5"/>
    </g>
  </g>
</svg>
