<svg width="24" height="24" viewBox="10 10 30 30" fill="none" xmlns="http://www.w3.org/2000/svg">
<path id="Path 17158" d="M17.5602 23.2704C17.7614 23.6324 18.218 23.7628 18.58 23.5616C18.9421 23.3604 19.0725 22.9038 18.8713 22.5417L17.5602 23.2704ZM15.6845 26.1771L15.8727 25.451L15.8726 25.451L15.6845 26.1771ZM18.8713 25.4564C19.0725 25.0943 18.9421 24.6377 18.5801 24.4365C18.218 24.2353 17.7614 24.3656 17.5602 24.7277L18.8713 25.4564ZM18.5561 22.2377C18.1871 22.0497 17.7354 22.1965 17.5474 22.5656C17.3594 22.9347 17.5062 23.3863 17.8753 23.5743L18.5561 22.2377ZM17.8761 24.4233C17.5068 24.6109 17.3594 25.0623 17.547 25.4316C17.7346 25.8009 18.186 25.9483 18.5553 25.7607L17.8761 24.4233ZM17.8515 22.2504C17.4894 22.4516 17.3589 22.9081 17.5601 23.2702C17.7612 23.6323 18.2178 23.7628 18.5799 23.5617L17.8515 22.2504ZM28.1459 18.2477C28.508 18.0465 28.6385 17.5899 28.4373 17.2278C28.2362 16.8657 27.7796 16.7353 27.4175 16.9364L28.1459 18.2477ZM18.5799 24.4364C18.2178 24.2353 17.7612 24.3657 17.5601 24.7278C17.3589 25.0899 17.4894 25.5465 17.8515 25.7477L18.5799 24.4364ZM27.4175 31.0617C27.7796 31.2628 28.2362 31.1323 28.4373 30.7702C28.6385 30.4081 28.508 29.9516 28.1459 29.7504L27.4175 31.0617ZM27.7817 17.592L28.4374 17.228C28.2393 16.8711 27.792 16.7382 27.4311 16.929L27.7817 17.592ZM30.8409 18.4664L31.2051 19.122L31.2051 19.122L30.8409 18.4664ZM31.7151 15.4068L31.0594 15.771L31.0595 15.7711L31.7151 15.4068ZM27.7815 17.5921L27.1259 17.9564C27.3241 18.3132 27.7713 18.4459 28.1321 18.2551L27.7815 17.5921ZM18.8713 22.5417C18.2072 21.3469 16.8195 20.752 15.4963 21.095L15.8726 22.547C16.5343 22.3755 17.2281 22.673 17.5602 23.2704L18.8713 22.5417ZM15.4963 21.095C14.1731 21.438 13.249 22.6321 13.249 23.999H14.749C14.749 23.3156 15.211 22.7185 15.8726 22.547L15.4963 21.095ZM13.249 23.999C13.249 25.366 14.1731 26.5601 15.4963 26.9031L15.8726 25.451C15.211 25.2796 14.749 24.6825 14.749 23.999H13.249ZM15.4963 26.9031C16.8195 27.246 18.2072 26.6512 18.8713 25.4564L17.5602 24.7277C17.2281 25.3251 16.5342 25.6225 15.8727 25.451L15.4963 26.9031ZM17.8753 23.5743C18.1495 23.714 18.3162 23.8405 18.4053 23.9362C18.4908 24.028 18.4657 24.0464 18.4657 23.999H19.9657C19.9657 23.5547 19.7587 23.1886 19.5032 22.9141C19.2513 22.6436 18.9179 22.4221 18.5561 22.2377L17.8753 23.5743ZM18.4657 23.999C18.4657 23.9519 18.4906 23.9706 18.4051 24.0624C18.3162 24.158 18.1497 24.2844 17.8761 24.4233L18.5553 25.7607C18.9177 25.5767 19.2513 25.355 19.5033 25.0842C19.7589 24.8095 19.9657 24.4432 19.9657 23.999H18.4657ZM18.5799 23.5617L28.1459 18.2477L27.4175 16.9364L17.8515 22.2504L18.5799 23.5617ZM17.8515 25.7477L27.4175 31.0617L28.1459 29.7504L18.5799 24.4364L17.8515 25.7477ZM27.1261 30.0418C26.3213 31.4905 26.8433 33.3174 28.292 34.1222L29.0204 32.8109C28.2959 32.4084 28.0348 31.4948 28.4373 30.7703L27.1261 30.0418ZM28.292 34.1222C29.7407 34.927 31.5675 34.405 32.3723 32.9563L31.0611 32.2278C30.6586 32.9523 29.745 33.2134 29.0204 32.8109L28.292 34.1222ZM32.3723 32.9563C33.1771 31.5075 32.6551 29.6807 31.2064 28.8759L30.478 30.1872C31.2025 30.5897 31.4636 31.5033 31.0611 32.2278L32.3723 32.9563ZM31.2064 28.8759C29.7577 28.0711 27.9309 28.5931 27.1261 30.0418L28.4373 30.7703C28.8398 30.0457 29.7535 29.7847 30.478 30.1872L31.2064 28.8759ZM27.126 17.9561C27.9303 19.4049 29.7568 19.9266 31.2051 19.122L30.4767 17.8108C29.7525 18.2131 28.8394 17.9521 28.4374 17.228L27.126 17.9561ZM31.2051 19.122C32.6535 18.3174 33.1753 16.491 32.3707 15.0426L31.0595 15.7711C31.4618 16.4952 31.2009 17.4084 30.4767 17.8108L31.2051 19.122ZM32.3708 15.0427C31.5663 13.5941 29.7398 13.0723 28.2915 13.877L29.0199 15.1882C29.7441 14.7859 30.6573 15.0468 31.0594 15.771L32.3708 15.0427ZM28.2915 13.877C26.8431 14.6816 26.3213 16.508 27.1259 17.9564L28.4372 17.2279C28.0348 16.5037 28.2958 15.5905 29.0199 15.1882L28.2915 13.877ZM28.1321 18.2551L28.1323 18.2551L27.4311 16.929L27.431 16.9291L28.1321 18.2551Z" fill="#3B41E3"/>
</svg>
