<svg xmlns="http://www.w3.org/2000/svg" width="24" height="24" viewBox="0 0 24 24">
  <g id="Group_22004" data-name="Group 22004" transform="translate(-1264 -398)">
    <circle id="Ellipse_1272" data-name="Ellipse 1272" cx="12" cy="12" r="12" transform="translate(1264 398)" fill="#fff"/>
    <path id="Path_17157" data-name="Path 17157" d="M2.25,9.507a2.146,2.146,0,0,0,1.8,2.151q1.087.16,2.2.246V15l2.717-2.717a1.017,1.017,0,0,1,.691-.3,32.189,32.189,0,0,0,3.787-.329,2.146,2.146,0,0,0,1.8-2.152V5.494a2.146,2.146,0,0,0-1.8-2.152,32.4,32.4,0,0,0-9.391,0,2.146,2.146,0,0,0-1.8,2.152V9.506Z" transform="translate(1267.25 401)" fill="none" stroke="#3b41e3" stroke-linecap="round" stroke-linejoin="round" stroke-width="1.5"/>
  </g>
</svg>
