<svg width="16" height="14" viewBox="0 0 16 14" fill="none" xmlns="http://www.w3.org/2000/svg">
<path fill-rule="evenodd" clip-rule="evenodd" d="M1.50002 7.50667C1.50002 8.57334 2.24869 9.50267 3.30469 9.658C4.02936 9.76467 4.76136 9.84667 5.50002 9.904V13L8.21735 10.2827C8.40164 10.0996 8.64898 9.9939 8.90868 9.98734C10.1763 9.95225 11.4407 9.84228 12.6953 9.658C13.7513 9.50267 14.5 8.574 14.5 7.506V3.494C14.5 2.426 13.7513 1.49733 12.6953 1.342C11.1407 1.11381 9.57136 0.999502 8.00001 1C6.40534 1 4.83734 1.11666 3.30467 1.342C2.24867 1.49733 1.5 2.42667 1.5 3.494V7.506L1.50002 7.50667Z" stroke="#B0B7CF" stroke-width="1.5" stroke-linecap="round" stroke-linejoin="round"/>
</svg>
