<svg width="24" height="24" viewBox="0 0 24 24" fill="none" xmlns="http://www.w3.org/2000/svg">
<path fill-rule="evenodd" clip-rule="evenodd" d="M0 4C0 1.79086 1.79086 0 4 0H20C22.2091 0 24 1.79086 24 4V20C24 22.2091 22.2091 24 20 24H4C1.79086 24 0 22.2091 0 20V4Z" fill="#F9F9FB"/>
<path d="M4.67991 8.11587C4.46777 8.29265 4.43911 8.60793 4.61589 8.82007C4.79267 9.03221 5.10795 9.06087 5.32009 8.88409L4.67991 8.11587ZM8.32009 6.38411C8.53223 6.20733 8.56089 5.89205 8.38411 5.67991C8.20733 5.46777 7.89205 5.43911 7.67991 5.61589L8.32009 6.38411ZM8.32009 5.61589C8.10795 5.43911 7.79267 5.46777 7.61589 5.67991C7.43911 5.89205 7.46777 6.20733 7.67991 6.38411L8.32009 5.61589ZM10.6799 8.88409C10.892 9.06087 11.2073 9.03221 11.3841 8.82007C11.5609 8.60793 11.5322 8.29265 11.3201 8.11587L10.6799 8.88409ZM8.5 6C8.5 5.72386 8.27614 5.5 8 5.5C7.72386 5.5 7.5 5.72386 7.5 6H8.5ZM7.5 17.9999C7.5 18.2761 7.72386 18.4999 8 18.4999C8.27614 18.4999 8.5 18.2761 8.5 17.9999H7.5ZM5.32009 8.88409L8.32009 6.38411L7.67991 5.61589L4.67991 8.11587L5.32009 8.88409ZM7.67991 6.38411L10.6799 8.88409L11.3201 8.11587L8.32009 5.61589L7.67991 6.38411ZM7.5 6V17.9999H8.5V6H7.5Z" fill="#B0B7CF"/>
<path d="M13.3201 15.1159C13.108 14.9391 12.7927 14.9678 12.6159 15.1799C12.4391 15.392 12.4678 15.7073 12.6799 15.8841L13.3201 15.1159ZM15.6799 18.3841C15.892 18.5609 16.2073 18.5322 16.3841 18.3201C16.5609 18.108 16.5322 17.7927 16.3201 17.6159L15.6799 18.3841ZM15.6799 17.6159C15.4678 17.7927 15.4391 18.108 15.6159 18.3201C15.7927 18.5322 16.108 18.5609 16.3201 18.3841L15.6799 17.6159ZM19.3201 15.8841C19.5322 15.7073 19.5609 15.392 19.3841 15.1799C19.2073 14.9678 18.892 14.9391 18.6799 15.1159L19.3201 15.8841ZM15.5 18C15.5 18.2761 15.7239 18.5 16 18.5C16.2761 18.5 16.5 18.2761 16.5 18H15.5ZM16.5 6C16.5 5.72386 16.2761 5.5 16 5.5C15.7239 5.5 15.5 5.72386 15.5 6H16.5ZM12.6799 15.8841L15.6799 18.3841L16.3201 17.6159L13.3201 15.1159L12.6799 15.8841ZM16.3201 18.3841L19.3201 15.8841L18.6799 15.1159L15.6799 17.6159L16.3201 18.3841ZM16.5 18V6H15.5V18H16.5Z" fill="#B0B7CF"/>
</svg>
