<svg width="21" height="21" viewBox="0 0 21 21" fill="none" xmlns="http://www.w3.org/2000/svg">
<path id="noun-go-1851808" fill-rule="evenodd" clip-rule="evenodd" d="M0.704956 10.6479C0.704956 7.97293 1.76759 5.40759 3.65894 3.51599C5.55037 1.62456 8.11588 0.562012 10.7908 0.562012C13.4657 0.562012 16.0311 1.62464 17.9227 3.51599C19.8141 5.40742 20.8767 7.97292 20.8767 10.6479C20.8767 13.3228 19.814 15.8881 17.9227 17.7797C16.0312 19.6712 13.4657 20.7337 10.7908 20.7337C8.11588 20.7337 5.55054 19.6711 3.65894 17.7797C1.76751 15.8883 0.704956 13.3228 0.704956 10.6479ZM1.96569 10.6479C1.96569 12.9885 2.89547 15.2331 4.55052 16.8881C6.20557 18.5432 8.45021 19.473 10.7908 19.473C13.1314 19.473 15.376 18.5432 17.0311 16.8881C18.6862 15.2331 19.6159 12.9885 19.6159 10.6479C19.6159 8.30727 18.6861 6.06267 17.0311 4.40758C15.376 2.75249 13.1314 1.82275 10.7908 1.82275C8.4524 1.82991 6.21183 2.76199 4.55842 4.41548C2.90501 6.06897 1.97291 8.30946 1.96568 10.6479H1.96569ZM11.192 14.4823C11.0739 14.3641 11.0075 14.2038 11.0075 14.0367C11.0075 13.8695 11.0739 13.7092 11.192 13.5909L13.5118 11.2715H6.37202C6.1468 11.2715 5.93872 11.1514 5.82609 10.9564C5.71348 10.7613 5.71348 10.521 5.82609 10.326C5.9387 10.131 6.14679 10.0108 6.37202 10.0108H13.4725L11.192 7.73039C11.0329 7.57116 10.9707 7.33897 11.029 7.12149C11.0874 6.90396 11.2573 6.73408 11.4748 6.67576C11.6924 6.61752 11.9245 6.67977 12.0837 6.83906L15.8069 10.6609L12.0831 14.4821C11.9649 14.6004 11.8045 14.6668 11.6372 14.6668C11.4701 14.6668 11.3096 14.6004 11.1914 14.4821L11.192 14.4823Z" fill="white"/>
</svg>
