<svg xmlns="http://www.w3.org/2000/svg" width="13.141" height="13.029" viewBox="0 0 13.141 13.029">
  <path id="Path_15997" data-name="Path 15997" d="M7.883,10.189l3.582,3.582a1.629,1.629,0,1,0,2.3-2.3L10.159,7.856M7.883,10.189,9.417,8.327a1.494,1.494,0,0,1,.742-.471M7.883,10.189l-2.86,3.473a1.566,1.566,0,1,1-2.2-2.2L7.021,8m3.139-.143A2.955,2.955,0,0,1,11.23,7.77a2.765,2.765,0,0,0,2.756-3.893L11.974,5.891a1.846,1.846,0,0,1-1.382-1.382L12.6,2.5A2.765,2.765,0,0,0,8.711,5.252a2.068,2.068,0,0,1-.555,1.813l-.063.052M7.021,8,4.5,5.476H3.631l-1.382-2.3L3.17,2.25l2.3,1.382V4.5L8.092,7.116M7.02,8l1.072-.883" transform="translate(-1.735 -1.719)" fill="none" stroke="#abb4c3" stroke-linecap="round" stroke-linejoin="round" stroke-width="1"/>
</svg>
