<svg xmlns="http://www.w3.org/2000/svg" width="13" height="13" viewBox="0 0 13 13">
  <path id="Path_16031" data-name="Path 16031" d="M5.5,3V4.5m7-1.5V4.5M3,13.5V6A1.5,1.5,0,0,1,4.5,4.5h9A1.5,1.5,0,0,1,15,6v7.5m-12,0A1.5,1.5,0,0,0,4.5,15h9A1.5,1.5,0,0,0,15,13.5m-12,0v-5A1.5,1.5,0,0,1,4.5,7h9A1.5,1.5,0,0,1,15,8.5v5m-6-4h.005v.005H9ZM9,11h.005v.005H9Zm0,1.5h.005v.005H9ZM7.5,11h.005v.005H7.5Zm0,1.5h.005v.005H7.5ZM6,11h.005v.005H6Zm0,1.5h.005v.005H6Zm4.5-3h.005v.005H10.5Zm0,1.5h.005v.005H10.5Zm0,1.5h.005v.005H10.5Zm1.5-3h.005v.005H12ZM12,11h.005v.005H12Z" transform="translate(-2.5 -2.5)" fill="none" stroke="#abb4c3" stroke-linecap="round" stroke-linejoin="round" stroke-width="1"/>
</svg>
