<svg width="24" height="24" viewBox="0 0 24 24" fill="none" xmlns="http://www.w3.org/2000/svg">
<g id="Upload">
<path id="Path 17019" d="M5.5 15.5C5.5 15.2239 5.27614 15 5 15C4.72386 15 4.5 15.2239 4.5 15.5H5.5ZM19.5 15.5C19.5 15.2239 19.2761 15 19 15C18.7239 15 18.5 15.2239 18.5 15.5H19.5ZM8.14645 8.14645C7.95118 8.34171 7.95118 8.65829 8.14645 8.85355C8.34171 9.04882 8.65829 9.04882 8.85355 8.85355L8.14645 8.14645ZM12.3536 5.35355C12.5488 5.15829 12.5488 4.84171 12.3536 4.64645C12.1583 4.45118 11.8417 4.45118 11.6464 4.64645L12.3536 5.35355ZM12.3536 4.64645C12.1583 4.45118 11.8417 4.45118 11.6464 4.64645C11.4512 4.84171 11.4512 5.15829 11.6464 5.35355L12.3536 4.64645ZM15.1464 8.85355C15.3417 9.04882 15.6583 9.04882 15.8536 8.85355C16.0488 8.65829 16.0488 8.34171 15.8536 8.14645L15.1464 8.85355ZM12.5 5C12.5 4.72386 12.2761 4.5 12 4.5C11.7239 4.5 11.5 4.72386 11.5 5H12.5ZM11.5 15.5C11.5 15.7761 11.7239 16 12 16C12.2761 16 12.5 15.7761 12.5 15.5H11.5ZM4.5 15.5V17.25H5.5V15.5H4.5ZM4.5 17.25C4.5 18.4926 5.50736 19.5 6.75 19.5V18.5C6.05964 18.5 5.5 17.9404 5.5 17.25H4.5ZM6.75 19.5H17.25V18.5H6.75V19.5ZM17.25 19.5C18.4926 19.5 19.5 18.4926 19.5 17.25H18.5C18.5 17.9404 17.9404 18.5 17.25 18.5V19.5ZM19.5 17.25V15.5H18.5V17.25H19.5ZM8.85355 8.85355L12.3536 5.35355L11.6464 4.64645L8.14645 8.14645L8.85355 8.85355ZM11.6464 5.35355L15.1464 8.85355L15.8536 8.14645L12.3536 4.64645L11.6464 5.35355ZM11.5 5V15.5H12.5V5H11.5Z" fill="#74829C"/>
</g>
</svg>
