<svg width="12" height="11" viewBox="0 0 12 11" fill="none" xmlns="http://www.w3.org/2000/svg">
<path d="M1.64453 7.9621C1.64453 7.68595 1.42067 7.4621 1.14453 7.4621C0.868389 7.4621 0.644531 7.68595 0.644531 7.9621H1.64453ZM11.3088 7.9621C11.3088 7.68595 11.085 7.4621 10.8088 7.4621C10.5327 7.4621 10.3088 7.68595 10.3088 7.9621H11.3088ZM3.20706 2.77639C3.0118 2.97166 3.0118 3.28824 3.20706 3.4835C3.40232 3.67876 3.7189 3.67876 3.91416 3.4835L3.20706 2.77639ZM6.33024 1.06742C6.52551 0.872158 6.52551 0.555576 6.33024 0.360314C6.13498 0.165052 5.8184 0.165052 5.62314 0.360314L6.33024 1.06742ZM6.33023 0.360314C6.13497 0.165052 5.81839 0.165052 5.62313 0.360314C5.42787 0.555576 5.42787 0.872158 5.62313 1.06742L6.33023 0.360314ZM8.03921 3.4835C8.23447 3.67876 8.55105 3.67876 8.74631 3.4835C8.94158 3.28824 8.94158 2.97166 8.74631 2.77639L8.03921 3.4835ZM6.47668 0.713867C6.47668 0.437725 6.25282 0.213867 5.97668 0.213867C5.70054 0.213867 5.47668 0.437725 5.47668 0.713867H6.47668ZM5.47668 7.9621C5.47668 8.23824 5.70054 8.4621 5.97668 8.4621C6.25282 8.4621 6.47668 8.23824 6.47668 7.9621H5.47668ZM0.644531 7.9621V9.17014H1.64453V7.9621H0.644531ZM0.644531 9.17014C0.644531 10.1135 1.40925 10.8782 2.35257 10.8782V9.87818C1.96153 9.87818 1.64453 9.56117 1.64453 9.17014H0.644531ZM2.35257 10.8782H9.6008V9.87818H2.35257V10.8782ZM9.6008 10.8782C10.5441 10.8782 11.3088 10.1135 11.3088 9.17014H10.3088C10.3088 9.56117 9.99184 9.87818 9.6008 9.87818V10.8782ZM11.3088 9.17014V7.9621H10.3088V9.17014H11.3088ZM3.91416 3.4835L6.33024 1.06742L5.62314 0.360314L3.20706 2.77639L3.91416 3.4835ZM5.62313 1.06742L8.03921 3.4835L8.74631 2.77639L6.33023 0.360314L5.62313 1.06742ZM5.47668 0.713867V7.9621H6.47668V0.713867H5.47668Z" fill="white"/>
</svg>
