<svg xmlns="http://www.w3.org/2000/svg" width="12.052" height="12" viewBox="0 0 12.052 12">
  <g id="noun-zoom-in-1047225" transform="translate(-101.827 -61.134)">
    <g id="Group_24257" data-name="Group 24257" transform="translate(101.827 61.134)">
      <g id="Group_24256" data-name="Group 24256" transform="translate(0)">
        <path id="Path_17114" data-name="Path 17114" d="M6.193,5.365H7.216a.511.511,0,0,0,0-1.022H6.193V3.32a.511.511,0,0,0-1.022,0V4.343H4.147a.511.511,0,0,0,0,1.022H5.171V6.389a.511.511,0,0,0,1.022,0Zm2.57,3.241,3.244,3.244a.511.511,0,1,0,.723-.723L9.479,7.878a4.854,4.854,0,1,0-.717.728Zm-3.08.081A3.832,3.832,0,1,1,9.514,4.854,3.832,3.832,0,0,1,5.682,8.687Z" transform="translate(-0.827)" fill="#fff" fill-rule="evenodd"/>
      </g>
    </g>
  </g>
</svg>
