<svg xmlns="http://www.w3.org/2000/svg" width="12" height="12" viewBox="0 0 12 12">
  <g id="noun-zoom-out-1073682" transform="translate(-15.264 -16.264)">
    <g id="Group_24255" data-name="Group 24255" transform="translate(15.264 16.264)">
      <g id="Group_24254" data-name="Group 24254" transform="translate(0 0)">
        <path id="Path_17112" data-name="Path 17112" d="M27.234,26.443l-2.669-2.65a5.1,5.1,0,0,0,1.141-3.239,5.145,5.145,0,1,0-1.914,4.012l2.669,2.669a.534.534,0,0,0,.773,0A.555.555,0,0,0,27.234,26.443ZM16.5,20.553A4.049,4.049,0,1,1,20.553,24.6,4.061,4.061,0,0,1,16.5,20.553Z" transform="translate(-15.4 -15.4)" fill="#fff"/>
        <path id="Path_17113" data-name="Path 17113" d="M34.633,40.4H30.952a.552.552,0,1,0,0,1.1h3.681a.552.552,0,0,0,0-1.1Z" transform="translate(-27.639 -35.799)" fill="#fff"/>
      </g>
    </g>
  </g>
</svg>
